<svg xmlns="http://www.w3.org/2000/svg" width="107.7" height="34.61" viewBox="0 0 107.7 34.61"><title>Eriksminde-logo-light</title><path d="M45.63,34a.49.49,0,0,1-.35-.13c-.11-.08-.19-.13-.32-.06h-.07a.19.19,0,0,1-.22-.16h0v-.39a.34.34,0,0,0-.05-.22c-.06-.12-.1-.24-.15-.36s0,0,0-.07a1.93,1.93,0,0,0,0-.34c0-.09-.11-.17-.14-.27a.28.28,0,0,1,0-.18c0-.07.12-.13.18-.2a.25.25,0,0,0,0-.35l0,0c-.1-.17-.2-.33-.32-.51l.37-.22a1.09,1.09,0,0,0-.2-.58.29.29,0,0,0-.1-.12.64.64,0,0,1-.17-.47V27.57c0-.19.08-.36.07-.54a.36.36,0,0,1,.09-.22,2.51,2.51,0,0,1,.27-.37.89.89,0,0,1,.25-.14,2.11,2.11,0,0,0,0-.71l.16.13a.48.48,0,0,0,.15-.36,2.56,2.56,0,0,0-.08-.73.72.72,0,0,0-.15-.27.32.32,0,0,1-.08-.21v-.94a.19.19,0,0,1,.16-.15h.19a.4.4,0,0,0,.32-.48v0a3.64,3.64,0,0,1,0-.66,2.08,2.08,0,0,0-.07-.61,4,4,0,0,1,0-1.09c.05-.15,0-.33.07-.49s0-.16,0-.23a1.81,1.81,0,0,1-.11-.65.74.74,0,0,0-.2-.6,2.09,2.09,0,0,0,0-.93.75.75,0,0,1,0-.42,1.5,1.5,0,0,0,0-.73V16a8.26,8.26,0,0,0-.1-1,5,5,0,0,0-.08-.54.59.59,0,0,0-.14-.27.8.8,0,0,0-.15-.17c0-.35,0-.35-.32-.51l-.22-.11.15-.18V13.1a.81.81,0,0,1,.06-.71c0-.13-.1-.27-.14-.4a.63.63,0,0,0-.17-.38l.08-.13a1.33,1.33,0,0,0,.23-.3c0-.12-.1-.23-.11-.36a1.54,1.54,0,0,0-.09-.6.7.7,0,0,0,.29-.19c0-.12-.11-.17-.17-.25a.22.22,0,0,1,0-.22.7.7,0,0,0,0-.53,2,2,0,0,0-.14-.52.84.84,0,0,0-.27-.46.54.54,0,0,1-.15-.22.88.88,0,0,0-.39-.42.23.23,0,0,1-.1-.07.12.12,0,0,1,0-.14c0-.06.08-.1.11-.16a.28.28,0,0,0-.08-.39h0a.38.38,0,0,1-.3-.46.09.09,0,0,1,0,0V5.67a.86.86,0,0,0,0-.39.82.82,0,0,0-.06-.38c-.06-.12,0-.26,0-.39-.08-.45-.24-.9-.28-1.36-.07-.14,0-.31-.13-.44a.66.66,0,0,1-.1-.41,2.44,2.44,0,0,0-.06-.85.27.27,0,0,1,.05-.23.58.58,0,0,1,.5-.24A3,3,0,0,0,44,.76c.35-.12.72-.22,1.07-.33l.48-.21A3.84,3.84,0,0,1,46.2.06,13,13,0,0,1,47.73,0a2.36,2.36,0,0,1,.94.19,1.94,1.94,0,0,0,.78.22,6.35,6.35,0,0,0,.76.13,2.79,2.79,0,0,1,.72.29,5.19,5.19,0,0,1,1.24,1,10.16,10.16,0,0,1,.67.91c.47.71.92,1.44,1.39,2.16a3.35,3.35,0,0,1,.41,1c.09.4.22.79.32,1.19a3.87,3.87,0,0,1,.17.95V9a2.78,2.78,0,0,1-.11.81,2.63,2.63,0,0,1-.12.61,1.78,1.78,0,0,1-.38.75,4.79,4.79,0,0,1-1.62,1.2c-.22.1-.46.17-.69.25s-.22.06-.33.11a.24.24,0,0,0-.12.14A3.53,3.53,0,0,0,52,14.48c.15.34.33.67.51,1a10.66,10.66,0,0,0,.86,1.25.75.75,0,0,1,.16.35.32.32,0,0,0,.14.27.65.65,0,0,1,.27.45,3.58,3.58,0,0,0,.19.55.42.42,0,0,0,.37.29h.3a.4.4,0,0,1,.09.48.28.28,0,0,0,0,.22,3.85,3.85,0,0,0,.41.71c.14.19.3.36.45.53.41.46.8.93,1.19,1.4a12.3,12.3,0,0,1,.94,1.29,7.23,7.23,0,0,1,.4.66c.16.3.32.6.5.88a5,5,0,0,1,.34.74c.13.34.25.67.36,1s.25.84.37,1.26v.1a.84.84,0,0,0-.39-.22v.08l.24.49a.14.14,0,0,0,.17,0l.16-.13c.11.07.14.2.19.33l-.16.1-.14.07a.45.45,0,0,0,.23.42.36.36,0,0,0,.17.07.51.51,0,0,1,.45.33,8.24,8.24,0,0,0,.54.9v.07h-.18a.33.33,0,0,0-.2.34.67.67,0,0,0,0,.2,1.89,1.89,0,0,1,0,1,1.61,1.61,0,0,0,0,.31.67.67,0,0,1,0,.2l-.16-.07a.51.51,0,0,0-.48,0,.3.3,0,0,1-.26,0l-.25,0a.29.29,0,0,0-.39,0l-.24.21a4.89,4.89,0,0,1-.69.42c-.32.17-.66.31-1,.51a.37.37,0,0,1-.14.07.21.21,0,0,1-.19,0h0c-.1-.21-.31-.31-.47-.46l-.31-.3a1,1,0,0,1-.23-.35l-.62-1.38c-.3-.69-.61-1.38-.92-2.06a3.93,3.93,0,0,0-.84-1.25,2.34,2.34,0,0,1-.24-.31c-.2-.28-.41-.57-.6-.86a3.62,3.62,0,0,1-.25-.48,4.54,4.54,0,0,0-.21-.45c-.23-.37-.41-.76-.61-1.14-.31-.59-.61-1.2-.93-1.79s-.6-1-.91-1.54c-.13-.22-.28-.44-.41-.66a5.34,5.34,0,0,0-.53-.72.35.35,0,0,0-.28-.14,1.1,1.1,0,0,0,0,.54c.1.5.22,1,.29,1.48a5,5,0,0,1,.13.77,2.43,2.43,0,0,1,0,.66.58.58,0,0,0,.13.38l.29-.23h0a8.52,8.52,0,0,1,.1,1.82,4.13,4.13,0,0,1-.13.61c.06.06.11,0,.18,0,0,.33.07.66.09,1v.47c0,.45.08.9.08,1.35a1.31,1.31,0,0,0,.06.27V29h.27c0,.15-.17.11-.24.17v.07a.9.9,0,0,0,0,.46.62.62,0,0,1-.07.63c-.08.09,0,.17,0,.26l-.2.11a.28.28,0,0,0-.17.2,2.6,2.6,0,0,1-.1.25,4.05,4.05,0,0,0-.37,1.18v.11a.67.67,0,0,1-.45.58c-.22.08-.43.18-.65.24a.94.94,0,0,1-.62,0l-1.11-.45a1.49,1.49,0,0,1-.3-.18.11.11,0,0,0-.16,0,.08.08,0,0,0,0,0,.38.38,0,0,0,0,.15v.75A.56.56,0,0,1,45.63,34Zm6.43-16.67a2.48,2.48,0,0,1-.27-1,.91.91,0,0,0-.33-.72l-.18-.14-.16.23a.21.21,0,0,1-.16.19h0a.23.23,0,0,0-.27-.26.25.25,0,0,1-.2-.09l-.28-.3-.2.2-.17.2a.7.7,0,0,1-.27-.34L49.36,15c-.06-.09-.15-.09-.25-.09A.13.13,0,0,0,49,15a.14.14,0,0,0,0,.06c0,.07.1.12.14.18v.28a.74.74,0,0,0,.14.4.42.42,0,0,0,.3.15l-.1.33a2.48,2.48,0,0,0,.4.66.31.31,0,0,0,.26.15c.11,0,.11,0,.23.25l-.21.07a.25.25,0,0,0-.18.19,1,1,0,0,1-.4.6.92.92,0,0,1-.54-.52s-.07-.11-.15-.1-.09.1-.06.2l.07.18a3.49,3.49,0,0,0,.4.67,1.2,1.2,0,0,1,.23.6,1.46,1.46,0,0,0,.11.41c.1.26.21.5.33.75l.67,1.36c.05.09.11.17.17.26a10.58,10.58,0,0,1,.77,1.3c.09.2.22.38.3.59a.86.86,0,0,0,.1.16.94.94,0,0,1,.23.48.6.6,0,0,0,.13.28c.08.13.18.26.26.39a4.89,4.89,0,0,0,.94,1.18,1.53,1.53,0,0,1,.34.42,1.34,1.34,0,0,0,.91.68.26.26,0,0,1,.19.05,1.14,1.14,0,0,1,.48.58,1.06,1.06,0,0,0,.31.49L56,29a5.75,5.75,0,0,0,.83,0,.3.3,0,0,0,.29-.22,1.43,1.43,0,0,1,.09-.34c0-.11.1-.19.23-.09l.09.07a.21.21,0,0,0,.28-.09s0,0,0-.05a.5.5,0,0,0-.06-.34l.21-.08a2.17,2.17,0,0,1-.07-.24.2.2,0,0,1,.08-.21l.1-.06a.27.27,0,0,0,.14-.29.67.67,0,0,0,0-.2,8.4,8.4,0,0,0-.5-1c-.17-.28-.34-.55-.52-.82a9.35,9.35,0,0,0-1.07-1.43,4.07,4.07,0,0,1-.41-.52,4.17,4.17,0,0,1-.53-1,.89.89,0,0,0-.41-.54.52.52,0,0,1-.19-.2.53.53,0,0,1-.13-.36,1.29,1.29,0,0,1,.23-.68h-.07a.55.55,0,0,1-.39-.52,1.11,1.11,0,0,0-.07-.26,1,1,0,0,0-.45-.52c-.26-.17-.51-.32-.6-.63h0c-.2-.24-.39-.48-.58-.73a.29.29,0,0,0-.24-.11ZM46.31,4.91a3.64,3.64,0,0,0,.57.25,1,1,0,0,1,.52.38l.14.19A2.18,2.18,0,0,1,48,7.16v2a.32.32,0,0,0,.07.27h.22a4.29,4.29,0,0,0,.6-.13,2.31,2.31,0,0,0,1.55-1.08,1.51,1.51,0,0,0,.2-1.15,2.94,2.94,0,0,1,0-.42,5.81,5.81,0,0,1,0-.59,1,1,0,0,0-.08-.38l-.39-.93A3,3,0,0,0,50,4.44a.68.68,0,0,0-.31-.22,1.83,1.83,0,0,0-1.82,0,8.51,8.51,0,0,1-1.44.66A.27.27,0,0,0,46.31,4.91Zm2-2.19a.77.77,0,0,0-.7-.38,1.33,1.33,0,0,0-.71.17c-.13.09-.27.15-.39.24a.89.89,0,0,0-.37.46.81.81,0,0,0,.38,0,8.26,8.26,0,0,1,1.62-.37,1.17,1.17,0,0,0,.2-.12Zm2.42,7.72a.37.37,0,0,0-.29,0c-.25.07-.48.17-.74.22s-.6.15-.9.23a.34.34,0,0,0-.16.1v.1a.22.22,0,0,0,.15.1,2.81,2.81,0,0,0,.58,0,3.63,3.63,0,0,0,.84-.29A1.16,1.16,0,0,0,50.73,10.44Zm8.4,20.67a.25.25,0,0,0-.06-.26c-.11-.11-.18-.13-.31-.07l-.55.28a.44.44,0,0,0-.14.13v.17a.55.55,0,0,0,.4,0A5.26,5.26,0,0,0,59.13,31.11ZM51.73,15.4a.64.64,0,0,1-.14-.35c0-.11-.07-.16-.17-.17a.21.21,0,0,0-.19,0,.29.29,0,0,0,.07.34A.43.43,0,0,0,51.73,15.4Zm.39,1a5.06,5.06,0,0,0-.18-.77.38.38,0,0,0-.14.39.41.41,0,0,0,.36.34ZM59,27.12c.08.13,0,.28.2.36l.18-.17c0-.15-.13-.27-.34-.23Zm-1,4.69H58a.1.1,0,0,0,.07-.12.57.57,0,0,0-.11-.11.12.12,0,0,0-.14,0s-.07.08,0,.13a.06.06,0,0,0,0,.06ZM50.48,14.22l.26.19h.1a.09.09,0,0,0,0-.07.42.42,0,0,0-.26-.12Z" transform="translate(-0.03 0)" fill="#fff"/><path d="M36.46,16.43a1.35,1.35,0,0,1-.31-.56.77.77,0,0,1-.08-.42l.15-.8a.34.34,0,0,1,.1-.16,1.81,1.81,0,0,0,.5-.6.4.4,0,0,0-.42-.06,2.26,2.26,0,0,0-.67.39.43.43,0,0,0-.16.54l.06.14c-.34.49-.32.38-.41,1.3h-.08a.54.54,0,0,0-.11.27v.15a.34.34,0,0,0,.1.48l0,0a1.13,1.13,0,0,1,.35.64,2.25,2.25,0,0,0,.14.44.36.36,0,0,0,.24.18l.22.06a.48.48,0,0,1,.41.36l.06.15a.4.4,0,0,0,.2.22c.22.11.43.24.65.36a1,1,0,0,1,.35.31,1.42,1.42,0,0,1-.26.38l-.27.28a4.73,4.73,0,0,0-.67.81,1.7,1.7,0,0,1-1,.65,5.06,5.06,0,0,1-.67.17l-1,.15a.36.36,0,0,0-.2.11.6.6,0,0,0-.18.42v.62a1.48,1.48,0,0,0,.12.41c.07.19.17.38.24.57a1.5,1.5,0,0,0,.35.51l.56.55a2.75,2.75,0,0,0,.75.61,2.07,2.07,0,0,1,.65.6c.17.22.35.42.53.63s.47.52.7.79l.84,1c.27.33.48.52.71.78a.36.36,0,0,0,.43.11,1,1,0,0,1,.49-.06,3.4,3.4,0,0,1,.46.09.16.16,0,0,1,.09.07.42.42,0,0,0,.45.23h.15c.08.06.07.14.08.21a.92.92,0,0,0,.28.53c-.14.06-.3.06-.41.19v.61a.32.32,0,0,0,.33,0h.06a4.42,4.42,0,0,1,.15.48.19.19,0,0,1-.11.23.55.55,0,0,0-.45.52c-.24.42-.36.88-.57,1.31a.42.42,0,0,1-.39.21h-.08a.66.66,0,0,0-.34-.06c-.23,0-.46-.09-.69-.09a.4.4,0,0,1-.18-.24,1.21,1.21,0,0,0-.46-.28,6.53,6.53,0,0,1-.85-.39A7.09,7.09,0,0,0,36,33l-.54-.2a2,2,0,0,1-.61-.33q-.54-.36-1-.75c-.35-.26-.69-.55-1-.83L32,30.22a7.49,7.49,0,0,1-.68-.7A28.4,28.4,0,0,1,29.56,27c-.34-.55-.7-1.09-1-1.63a2,2,0,0,0-.4-.48,2.72,2.72,0,0,1-.74-1.17c-.09-.3-.2-.59-.29-.89a2.81,2.81,0,0,1-.16-.91c0-.3-.1-.59-.1-.89-.08-.1,0-.19,0-.29a4.57,4.57,0,0,1,.86-1.63,5.42,5.42,0,0,1,.6-.67.31.31,0,0,0,.11-.2.34.34,0,0,0-.19-.35c-.38-.21-.76-.44-1.15-.65a1.34,1.34,0,0,1-.74-1,3.43,3.43,0,0,0-.21-1c0-.1-.08-.22-.14-.32a2.19,2.19,0,0,1-.17-.55.86.86,0,0,1,0-.39c.09-.41.22-.82.28-1.24a1.42,1.42,0,0,1,.11-.33,27.13,27.13,0,0,1,1.38-3L28,8.61a6,6,0,0,0,.45-1c0-.05-.09,0-.13,0l-.2.28V7.75c.1-.19.21-.38.33-.58l.56-1a3.56,3.56,0,0,1,1-1.08l1.19-.94.41-.3a1,1,0,0,0,.4-.46,1.1,1.1,0,0,1,.51-.57c.13-.08.25-.19.37-.28a.36.36,0,0,1,.46,0,.32.32,0,0,0,.1.07.77.77,0,0,0,.52,0,1.27,1.27,0,0,1,.61-.1l.46.06c.25-.11.45-.37.72-.52l.26.16a1.11,1.11,0,0,0,.3.08.52.52,0,0,1,.36.27.56.56,0,0,0,.41.27A3.45,3.45,0,0,0,38,2.9,1.07,1.07,0,0,1,38.5,3c.07,0,.15.09.22.15a.49.49,0,0,1,.21.43,1.22,1.22,0,0,0,0,.27,2.17,2.17,0,0,1,0,1.13c-.12-.11-.2-.21-.14-.38a.38.38,0,0,0,0-.15,5.63,5.63,0,0,0-.38-.68.17.17,0,0,0-.1,0,.1.1,0,0,0-.08.07.38.38,0,0,0,0,.15v.51a.85.85,0,0,1-.32.68c-.08.08-.18,0-.21-.07a2.73,2.73,0,0,1-.1-.41V4.66a.1.1,0,0,0-.11-.09h0a.12.12,0,0,0-.12.07l-.1.22c-.1,0-.16-.07-.24-.1H37l-.24.16a.27.27,0,0,1-.21.09.33.33,0,0,0-.34.15l-.1.07-.17-.15L35.77,5c-.14,0-.14,0-.25.18a3.05,3.05,0,0,0,.38.74,1.62,1.62,0,0,0-.17.35,1.41,1.41,0,0,0,0,.41L35.5,7a2.65,2.65,0,0,1,.07.93c.31.09.38.08.58-.09l1.57-1.34.78-.63c.08,0,.11,0,.1.1v.38a1.1,1.1,0,0,0,0,.94,1.69,1.69,0,0,1-.27.32l-.22.22a.18.18,0,0,0,0,.22c0,.06.13.09.09.2h-.1a.26.26,0,0,0-.27.17.8.8,0,0,1-.15.21c0,.18.25.14.31.31l-.25.23c-.13.1-.18.21-.08.36a.21.21,0,0,1,0,.19c-.1.15-.2.3-.29.46l-.26.48a.35.35,0,0,0,0,.37l.12.19.18.26a1,1,0,0,0-.11.17.09.09,0,0,0,0,.13h0a.36.36,0,0,1,.24.11,2.38,2.38,0,0,1,.23.41v.05h-.56a.27.27,0,0,0-.28.26.36.36,0,0,0,0,.11A.32.32,0,0,1,37,13c-.07.17-.13.36-.19.55h.11s.11,0,.14,0a.38.38,0,0,1,.18.15,2.75,2.75,0,0,1,.15.36l.18-.15a.07.07,0,0,1,.07.08v.31l.12,0c.07,0,.1,0,.08.07a.09.09,0,0,1,0,.07.1.1,0,0,0,0,.14l.18.14h0c0,.29,0,.29.29.47a.49.49,0,0,1,0,.17v.15l.18.15v.08l-.12.48-.06.05h-.07l-.08,0c-.08-.12-.16-.23-.23-.36a.51.51,0,0,0-.25-.23l-.31-.16v-.69c0-.13.12,0,.16,0h.1a.26.26,0,0,0,0-.27c-.21,0-.21,0-.35-.25a1.8,1.8,0,0,0-.19.2,1.57,1.57,0,0,1-.38.43.27.27,0,0,0-.09.21.24.24,0,0,0,0,.12,1.23,1.23,0,0,1-.11.68,1.23,1.23,0,0,0,0,.54ZM32.29,22c-.14,0-.26-.11-.41-.09a.24.24,0,0,1-.21-.08.85.85,0,0,0-.45-.23c-.12-.05-.19,0-.16.17a.21.21,0,0,0,0,.11l.53,1a8.51,8.51,0,0,0,1.14,1.65,6.34,6.34,0,0,1,.69,1,5.93,5.93,0,0,0,.31.68,2.54,2.54,0,0,0,.41.52c.28.28.56.54.86.79a14,14,0,0,0,1.47,1.09,5.68,5.68,0,0,0,1.3.6s.1,0,.13,0A5.06,5.06,0,0,0,36.48,28a2.56,2.56,0,0,0-.11-.24,1.55,1.55,0,0,0-.36-.45c-.36-.4-.82-.68-1.18-1.08a.32.32,0,0,0-.17-.09,1,1,0,0,0-.41-.07.31.31,0,0,1-.29-.23v-.06l.08-.06c0-.13-.17-.11-.26-.15a.47.47,0,0,1-.35-.38.9.9,0,0,0-.06-.22,1.87,1.87,0,0,0-.4-.84,2.15,2.15,0,0,1-.45-.89,2.13,2.13,0,0,0-.1-.49C32.38,22.62,32.35,22.22,32.29,22Zm1.26-11.38a1.7,1.7,0,0,0-.19.19c-.09.18-.19.37-.27.56a9.74,9.74,0,0,0-.31,1.32c-.08.33,0,.7-.3,1v.08a2.15,2.15,0,0,0,0,1.07,1.27,1.27,0,0,0,.05.43.56.56,0,0,1-.22.59.31.31,0,0,0-.11.27,2.18,2.18,0,0,0,.14.84c.1.06.24,0,.31.13s0,.09,0,.13-.07.08,0,.17l.27.14c.16-.13,0-.23,0-.33a.09.09,0,0,1,0-.07c.15-.16.22-.18.41-.11l.21.09c.08-.16,0-.34.06-.49h.27c.12,0,0-.33,0-.5a.34.34,0,0,0-.09-.25.29.29,0,0,1-.08-.25v-.82s0-.05-.08-.06h-.07a.22.22,0,0,0-.08.2V16.1a.14.14,0,0,1,0,.09.19.19,0,0,1-.11-.16V15.8a2.84,2.84,0,0,1-.1-.57,3.21,3.21,0,0,1,0-.62v-1a1.43,1.43,0,0,0,0-.65,1.3,1.3,0,0,1,0-.62c.06-.25.15-.5.21-.75S33.54,11,33.55,10.63Zm-2.47-4.2v.11a.75.75,0,0,1-.26.66,1.52,1.52,0,0,1-.39.32.58.58,0,0,0-.31.43,1.11,1.11,0,0,1-.1.29v0h0L30.31,8l1.31-1.39c.11-.12.27-.21.27-.41A.5.5,0,0,0,32,6.1l.33-.48a.31.31,0,0,0,0-.23s-.07-.09-.12-.08h-.1a1,1,0,0,1-.41.29l-.13.09.13.16a1.71,1.71,0,0,0-.21.26,1.79,1.79,0,0,0-.13.32h-.26Zm4.14,8.07a.85.85,0,0,0,.14-.19c.11-.38.21-.76.32-1.15s.29-1.06.43-1.59a.48.48,0,0,1,.07-.3c.07-.1,0,0,0-.06s-.12,0-.15.09a5.62,5.62,0,0,0-.25.56,8.15,8.15,0,0,0-.31,1.07c-.1.39-.16.78-.23,1.17A2.68,2.68,0,0,0,35.22,14.5Zm-.84-4.56.09.09.09.07a6.2,6.2,0,0,0,.56-.93A.16.16,0,0,0,35,9a.11.11,0,0,0-.11,0,2.26,2.26,0,0,0-.63.78.17.17,0,0,0,0,.19Zm1.16,1,.24-.38.62-1,.36-.6V8.84l-.11.09a6.94,6.94,0,0,0-1.12,1.89.76.76,0,0,0,0,.15ZM33,5.54a7,7,0,0,0,.77-.86.21.21,0,0,0,0-.11c0-.06.07-.11,0-.19a1.12,1.12,0,0,0-.6.57.71.71,0,0,0-.17.62Zm.71,7.34A2.83,2.83,0,0,0,34,11.55s0-.1,0-.11a2.76,2.76,0,0,0-.34,1,.69.69,0,0,0,0,.47Zm-.23,1.34h0c.06.06.14.06.16,0a1.48,1.48,0,0,0,.08-.72.17.17,0,0,0,0-.1h-.1s-.06,0-.07.07C33.47,13.71,33.46,14,33.44,14.22Zm6.17,16.51a1.65,1.65,0,0,0-.7,1.11A3,3,0,0,0,39.61,30.73Zm-3.88-17.3a1.13,1.13,0,0,0,0,.26.16.16,0,0,0,.11.15l.21-.15a.3.3,0,0,0,0-.36c-.09-.06-.17,0-.25,0Zm-1.33,3.9.14.1-.07.2h0l.3.08h0v-.24c0-.2-.1-.26-.31-.2Zm.58-6c-.2.12-.19.35-.25.53a.72.72,0,0,0,0,.5c.25-.81.25-.81.21-1.06ZM28.73,13a.35.35,0,0,0-.12.29v.34a4.64,4.64,0,0,1-.1.68h.12v-.38c0-.12.06-.25.07-.37a1.36,1.36,0,0,1,.08-.49A.18.18,0,0,0,28.73,13Zm5.38-2h.2a.58.58,0,0,0,.17-.37.21.21,0,0,0,0-.11s0-.07-.08-.07h-.09a2.86,2.86,0,0,0-.25.6Zm3.06-2.64.15-.07v0a.13.13,0,0,0,0-.18A.15.15,0,0,0,37.28,8,.3.3,0,0,0,37,8a.24.24,0,0,0-.09.26Zm-.23,1.37a.41.41,0,0,0-.19.24c0,.15,0,.28.07.27a.34.34,0,0,0,.23-.22.24.24,0,0,0-.16-.24Zm-3.21,7.86c.1-.08.25-.06.3-.21-.23-.11-.25-.11-.3-.11a.23.23,0,0,0-.18.14Zm1.48,0h0c0,.11,0,.23.07.34s.06.07.12.07a.11.11,0,0,0,.11-.11h0a.36.36,0,0,0-.22-.33Zm1.18-5v-.06a.17.17,0,0,0-.23,0,.16.16,0,0,0,0,.07.11.11,0,0,0,.08.11.21.21,0,0,0,.17-.08Zm.75-.56-.34-.11a.07.07,0,0,0-.08,0v0s0,.08.05.08a.53.53,0,0,0,.35,0Z" transform="translate(-0.03 0)" fill="#fff"/><path d="M99.28,15.38a.32.32,0,0,1-.08.21l-.22.32a1.09,1.09,0,0,1-.34.37l-.19.13A.9.9,0,0,0,98,17a.35.35,0,0,1-.15.17,4.9,4.9,0,0,1-.84.29.55.55,0,0,1-.45-.07,1.74,1.74,0,0,0-.38-.14.37.37,0,0,1-.3-.43h0v-.08a.39.39,0,0,0-.46-.11h-.44c-.07-.16,0-.34-.11-.49a2,2,0,0,1-.09-.49,1.22,1.22,0,0,1,0-.27V14.1a1,1,0,0,1,.06-.42,2.49,2.49,0,0,0,0-.67,1.58,1.58,0,0,0-.05-.38,2.9,2.9,0,0,1-.12-.57,1.2,1.2,0,0,0-.21-.58c-.11-.17-.11-.17,0-.39-.09-.15-.32-.16-.38-.37s.18-.2.27-.3a.11.11,0,0,0,0-.15l0,0-.23,0-.21-.09s-.09-.14-.07-.17a.57.57,0,0,1,.11-.11H94a1.62,1.62,0,0,1,.62.06,3.35,3.35,0,0,0,1,0H96a.23.23,0,0,1,.24.17c.13.36.24.31.5.31h.39a3.61,3.61,0,0,1,1.64.4l1.2.64a.32.32,0,0,0,.3,0h0a.19.19,0,0,1,.18,0,5,5,0,0,0,1.2.29l.54.08a.28.28,0,0,0,.28-.17v-.07a.33.33,0,0,0,0-.4l-.15-.16c.06-.1.23-.12.15-.27s.14,0,.2-.05a.65.65,0,0,0,.53-.27l.15-.18a.58.58,0,0,1,.47-.23.29.29,0,0,0,.22-.07.58.58,0,0,1,.28-.12,1,1,0,0,1,.42,0l.65.09a2.35,2.35,0,0,1,1.39.63,1.39,1.39,0,0,1,.39,1.49,2.12,2.12,0,0,1-.77,1l-.16.11a1.49,1.49,0,0,1-.74.22h-.58a8.31,8.31,0,0,0-.86.07.29.29,0,0,0-.25.21,1.24,1.24,0,0,0-.09.38,7.58,7.58,0,0,1-.23.94.7.7,0,0,1-.35.44.18.18,0,0,0-.07,0,.29.29,0,0,0-.11.4h0a2.34,2.34,0,0,0,.46.71,6.19,6.19,0,0,0,.94.75.76.76,0,0,0,.18.09.19.19,0,0,0,.18,0l.12-.1a1.31,1.31,0,0,1,.53-.4c.11.19.29.3.33.53a.29.29,0,0,0,.31.24,3.39,3.39,0,0,0,.78,0,1.88,1.88,0,0,0,.56-.16.2.2,0,0,1,.21,0,1.12,1.12,0,0,1,.18.2.38.38,0,0,1,0,.15.32.32,0,0,1-.24.29,1.74,1.74,0,0,1-.55.16c-.25,0-.49.08-.74.07h-.94l-.12-.58H105c-.07,0-.13-.07-.22,0a.34.34,0,0,0-.2.17l-.06.12c-.08.06-.12,0-.15,0a8.13,8.13,0,0,1-.78-.52A3.81,3.81,0,0,1,102.4,16a4.45,4.45,0,0,1-.26-.88,2.15,2.15,0,0,1,0-.62,5.32,5.32,0,0,1,.18-.79,1.79,1.79,0,0,0-.06-1,.34.34,0,0,0-.36-.24.62.62,0,0,0-.17-.22,1.18,1.18,0,0,1-.49.12c-.1.12-.06.24,0,.37l.24.65a.38.38,0,0,1,0,.15,1.42,1.42,0,0,1-.29.59,6.34,6.34,0,0,1-.79.57,8.22,8.22,0,0,0-.87.58l-.18.06a3.11,3.11,0,0,1,.52-.63,3.41,3.41,0,0,0,.46-.47v-.36a3.45,3.45,0,0,1,.46-.12.17.17,0,0,0,.15-.2.14.14,0,0,0,0-.07v-.1a6.63,6.63,0,0,0-.65-.92,2,2,0,0,0-.71-.59,1.71,1.71,0,0,1-.66-.47l-.09-.07a2.54,2.54,0,0,0-1.36-.4q-.32,0-.18.3a2,2,0,0,1,.1.21,2.64,2.64,0,0,1,.17.47c.07.28.11.56.17.84s.1.47.14.71A9.55,9.55,0,0,1,98,14.51a.46.46,0,0,0,.17.38l.18.14a.5.5,0,0,0-.28.55.59.59,0,0,1,0,.37c0,.07,0,.16.1.19a.17.17,0,0,0,.19,0c.17-.13.34-.28.51-.42Zm5.25-2.82a1.19,1.19,0,0,0,.79.1,1.63,1.63,0,0,0,.83-.29,2.13,2.13,0,0,0,.51-.57.09.09,0,0,0,0-.07.8.8,0,0,0-.39-.93,2.14,2.14,0,0,0-.47-.2.42.42,0,0,0-.54.17l-.07.09c-.22.46-.45.91-.67,1.36A.37.37,0,0,0,104.53,12.56Z" transform="translate(-0.03 0)" fill="#fff"/><path d="M70.31,7.22h.35a.24.24,0,0,1,.22.24.29.29,0,0,1,0,.13l-.11.12a5.44,5.44,0,0,1-.42.41,5.13,5.13,0,0,0-.92,1c-.38.54-.76,1.08-1.15,1.61-.18.24-.37.46-.56.7a1.86,1.86,0,0,0-.21.28.26.26,0,0,0,0,.29,1.51,1.51,0,0,0,.18.26,3.61,3.61,0,0,1,.69,1.5v1.13a.59.59,0,0,1-.29.48l-.39.2a.36.36,0,0,0,.1.34c.12.19.26.36.38.54.35.5.71,1,1,1.5.24.34.46.69.69,1l.13.2a.3.3,0,0,1,0,.36,1.64,1.64,0,0,1-.14.22.56.56,0,0,1-.4-.17l-.88-.71-.15-.11v-.19A.43.43,0,0,0,68.2,18L68,17.9a.94.94,0,0,1-.39-.32v-.09a.47.47,0,0,1,.47.06l.3.18a.52.52,0,0,0,.3.05c.07,0,.14-.12.09-.18a.86.86,0,0,0-.13-.14.87.87,0,0,1-.22-.32,3.6,3.6,0,0,0-.54-.85l-.58-.74c0-.12.09-.11.12-.18s-.07-.08-.12-.08a3.09,3.09,0,0,1-.8-.38.44.44,0,0,1-.17-.16l-.15-.19.07-.18v-.19a.16.16,0,0,0-.07-.09h-.07l-.06.05a1.28,1.28,0,0,0-.11.2,3.89,3.89,0,0,0-.12.49.85.85,0,0,0,0,.5.76.76,0,0,1,0,.3,1.65,1.65,0,0,0,0,.7,1.93,1.93,0,0,1,0,.34,5,5,0,0,1-.09.66.2.2,0,0,1-.21,0l-.59-.2-.12.1a.08.08,0,0,1-.11,0l0,0c-.06-.16-.12-.32-.17-.48a8.09,8.09,0,0,1-.22-1.09,1.41,1.41,0,0,0-.14-.44,1,1,0,0,1-.12-.52v-.59A6.47,6.47,0,0,0,63.64,12c-.06-.18-.12-.34-.19-.51a4.61,4.61,0,0,1-.24-1.84c0-.1.06-.2,0-.3s.1-.43,0-.65,0-.42-.09-.61A9.31,9.31,0,0,1,63,6.41V6.29a.19.19,0,0,1,.15-.11h.15a.39.39,0,0,0,.44,0h.08c.3.07.57-.17.88-.07a.39.39,0,0,1,.12.42,2.49,2.49,0,0,0-.07.77c0,.22,0,.45,0,.67a5.83,5.83,0,0,0,.1.73A1.3,1.3,0,0,0,65,9l.29.12a.32.32,0,0,1,.24.35v.86a.54.54,0,0,0,.17.41.63.63,0,0,0,.37-.27c.37-.55.75-1.1,1.13-1.63.2-.28.42-.53.63-.79a.4.4,0,0,1,.3-.17c.23,0,.46-.1.69-.1a.78.78,0,0,0,.55-.18A2.6,2.6,0,0,0,70.31,7.22Zm-3,5.77c-.08.06-.18.1-.21.17-.19.34-.36.7-.52,1.05a.32.32,0,0,0,0,.3,1.18,1.18,0,0,0,.32.38.6.6,0,0,0,.54.15.38.38,0,0,0,.3-.17.85.85,0,0,0,.11-.64l-.3-1a.41.41,0,0,0-.29-.25Zm1.42,5.67a5.9,5.9,0,0,0,.89.84.23.23,0,0,0,.29,0c.08-.05.06-.15,0-.25L69.49,19a.36.36,0,0,1-.18-.24V18.6a.31.31,0,0,0-.26-.25.24.24,0,0,0-.28.16Z" transform="translate(-0.03 0)" fill="#fff"/><path d="M3.45,16.22a.78.78,0,0,0,.06-.43h0a0,0,0,0,0-.07,0A.39.39,0,0,1,3.2,16a.12.12,0,0,0-.09.14h0v.3H3a1.31,1.31,0,0,1-.35-.6,3.11,3.11,0,0,0-.22-.65.3.3,0,0,1,0-.26,1.16,1.16,0,0,0,0-.69v-.15a5.75,5.75,0,0,0-.26-1.48,2.94,2.94,0,0,1,0-.42V10.93a2.69,2.69,0,0,0-.11-.69l-.15,0c-.31.08-.57.22-.62.58l-.22-.15a.67.67,0,0,0-.52.61,1.46,1.46,0,0,1,0-.51A1.11,1.11,0,0,0,.36,10l-.3-.46a.13.13,0,0,1,0-.18l0,0,.1-.06a.41.41,0,0,1,.58.07v0L1,9.57H1.1a1.2,1.2,0,0,0,.51-.35.84.84,0,0,1,.54.47.38.38,0,0,1,0,.15.69.69,0,0,0,0,.49l.47,1.35.9,2.54a2,2,0,0,0,.1.26A15.13,15.13,0,0,0,4.49,16a.24.24,0,0,0,.09.08.09.09,0,0,0,.1,0,.24.24,0,0,0,.05-.18c.06-.22.11-.45.17-.67a1.15,1.15,0,0,1,.21-.43h.32l.09-.17c.14-.21,0-.4,0-.59a.2.2,0,0,0-.11-.11l-.31-.13a.16.16,0,0,1,.07-.22.68.68,0,0,1,.75-.14h.14l.12-.32.55-1.79a2.83,2.83,0,0,0,.14-.41,2.91,2.91,0,0,1,.49-1,.21.21,0,0,1,.29-.07h0a.32.32,0,0,1,.17.25,1.62,1.62,0,0,0,.07.62,4.84,4.84,0,0,1-.06,1.2,1,1,0,0,1-.07.46,5,5,0,0,1-.28,1,1.28,1.28,0,0,1-.14.4,2.07,2.07,0,0,0-.08.42v.26a.24.24,0,0,0,0,.12c.09.41.08.85.2,1.26a1,1,0,0,1,0,.24c-.12-.29-.25-.58-.39-.86,0,0-.1.07-.1.11a3.2,3.2,0,0,0-.09.62c0,.32-.07.64-.07,1v.93a4.17,4.17,0,0,1-.07.93,4.61,4.61,0,0,1-.15.72.17.17,0,0,1-.19.16H6.06a.41.41,0,0,1-.19-.05.68.68,0,0,0-.44-.1,1,1,0,0,1-.35,0,1,1,0,0,1-.61-.45.43.43,0,0,1-.06-.22.35.35,0,0,0-.27-.42s-.06,0-.09-.08.14,0,.2-.05a.29.29,0,0,0,.26-.14.2.2,0,0,0,0-.25c-.06-.09-.11-.18-.16-.27A.76.76,0,0,0,4,17.23a.6.6,0,0,1-.26-.43A4.41,4.41,0,0,0,3.45,16.22Zm.48.18v.11c.13.29.27.58.41.87l0,.1h.07a.06.06,0,0,0,0-.06.39.39,0,0,0,0-.26,2.83,2.83,0,0,0-.53-.75Zm2.46-2.3a.91.91,0,0,0-.17.42.45.45,0,0,0,.1.1.15.15,0,0,0,.09-.06c0-.12,0-.25.06-.38s0,0-.08-.07ZM3,15.32l-.24.32.15.07c.06,0,.08,0,.08-.14A2.26,2.26,0,0,0,3,15.32Z" transform="translate(-0.03 0)" fill="#fff"/><path d="M80.44,14.55h.06a9,9,0,0,0,1-2.16,2.93,2.93,0,0,0,.12-.72c0-.07,0-.15.12-.16l.12,1c0,.07.12.14.19.22a.92.92,0,0,1,.13.19.24.24,0,0,1,0,.26c-.06.11-.12.22-.19.33-.18.32-.37.63-.56.94l-.09.17c0,.14.14.26.07.41-.28.08-.28.08-.39.31a2.53,2.53,0,0,1-.18.35c-.07.11,0,.13,0,.22l-.29-.09a1.11,1.11,0,0,1-.26-.07.44.44,0,0,1-.13-.14.84.84,0,0,0-.1-.29c0-.09-.09-.1-.13-.1a.4.4,0,0,0-.13.13.31.31,0,0,0,0,.19c.08.31.18.62.27.93a8,8,0,0,1,.27,1.2c0,.19.08.38.13.57v.31a.34.34,0,0,1-.23.36c-.43.2-.85.44-1.3.61H78.8a.23.23,0,0,1-.29-.14L78.36,19a.57.57,0,0,1,0-.59.18.18,0,0,0,0-.25,1,1,0,0,1-.26-.64,3.72,3.72,0,0,0-.17-.79c-.06-.26-.07-.46-.13-.68s-.09-.48-.14-.73v-.15a7.4,7.4,0,0,0-.22-1.41,3.11,3.11,0,0,0-.1-.61c-.09-.43-.11-.88-.22-1.3a.89.89,0,0,1,0-.23,3.78,3.78,0,0,0-.06-.47,1.47,1.47,0,0,1,.07-.72.22.22,0,0,1,.08-.13A2.51,2.51,0,0,1,77.9,10a.23.23,0,0,1,.25.06c.12.13.26.26.39.38a1,1,0,0,1,.36.75,5.66,5.66,0,0,0,.53,1.93A7.41,7.41,0,0,0,80,14l.21.28A3.27,3.27,0,0,0,80.44,14.55Z" transform="translate(-0.03 0)" fill="#fff"/><path d="M12.93,19c-.14-.11-.17-.28-.27-.42a2.14,2.14,0,0,1-.28-.92,2.68,2.68,0,0,0-.11-.49,4.51,4.51,0,0,1-.22-1.26c0-.36-.07-.72-.09-1.08A3.38,3.38,0,0,0,11.8,14a1.2,1.2,0,0,0-.2-.41,3.72,3.72,0,0,0-.19-.34.35.35,0,0,1-.06-.26.64.64,0,0,1,.06-.18c0-.07.11-.06.17-.07a.16.16,0,0,0,.16-.14h0a4.52,4.52,0,0,1,.06-.74,1.41,1.41,0,0,0-.06-.76v-.86a.52.52,0,0,1,.4-.39.32.32,0,0,1,.21.08,1,1,0,0,1,.23.26l.47.76a2.06,2.06,0,0,0,.41.57.65.65,0,0,1,.22.36c.27.82.55,1.64.82,2.46a4.35,4.35,0,0,1,.18.71,1.25,1.25,0,0,1,0,.69,1,1,0,0,1-.08.26.89.89,0,0,0,0,.68,2.62,2.62,0,0,1-.06,1.08,2,2,0,0,0-.06,1,6,6,0,0,0,.14.92,6.09,6.09,0,0,0,.25,1.2.32.32,0,0,1,0,.27c-.09.23-.22.29-.45.19a.54.54,0,0,1-.31-.28c0-.06-.06-.12-.08-.18a2.69,2.69,0,0,0-.46-.85c-.19-.26-.35-.54-.53-.81v-.12s.29.16.44,0,0,0,0-.07a.43.43,0,0,0-.24-.22C13.12,18.87,13,18.9,12.93,19Z" transform="translate(-0.03 0)" fill="#fff"/><path d="M72.27,14.61c.06.15.17.17.26.22a4.85,4.85,0,0,1,.71.47,2,2,0,0,1,.62.82c.15.35.33.68.5,1a3.25,3.25,0,0,1,.3.84,2.09,2.09,0,0,1,0,.5.48.48,0,0,1-.22.39,3.62,3.62,0,0,1-.48.25,10.17,10.17,0,0,1-1.08.3h-.12c-.23.07-.25.13-.1.35l.12.23c-.16.34-.17.36-.49.33a1.61,1.61,0,0,1-.38-.08,2.42,2.42,0,0,1-.92-.39l-.23-.2a.42.42,0,0,1,0-.22.2.2,0,0,1,.1-.2,2.09,2.09,0,0,1,.59-.17l1.31-.25a1.46,1.46,0,0,0,.65-.1,3.26,3.26,0,0,0,.44-.15.38.38,0,0,0,.23-.49v0a1.26,1.26,0,0,0-.13-.37,6.47,6.47,0,0,0-.7-1.45,2.08,2.08,0,0,0-1-.85,4.47,4.47,0,0,0-1.3-.35.79.79,0,0,1-.26-.08.61.61,0,0,1-.25-.34v-.29l.06-.15.56-.88A4.62,4.62,0,0,1,72.25,12a5,5,0,0,1,.63-.38l.8-.4a1.26,1.26,0,0,1,.33-.1,1,1,0,0,1,.84.27.49.49,0,0,1,.16.3,10,10,0,0,1,.09,1.09.32.32,0,0,1-.21.3.4.4,0,0,1-.43-.05.34.34,0,0,0-.32-.1A.64.64,0,0,0,74,13a2,2,0,0,0-.87.82,2.29,2.29,0,0,1-.66.69Zm-.36,5.31c.07.1.13.18.25.19l.16-.11a.06.06,0,0,0,0-.06.34.34,0,0,0-.17-.28c-.09-.07-.13,0-.19.1A1,1,0,0,0,71.91,19.92Z" transform="translate(-0.03 0)" fill="#fff"/><path d="M60.5,18.22l.18.09v.3a.25.25,0,0,0,.06.14.11.11,0,0,0,.14.05.62.62,0,0,0,.41-.46,1.23,1.23,0,0,0-.14-.25,1.09,1.09,0,0,1-.1-.25.26.26,0,0,0-.28-.22h0l-.24-.28s-.08,0-.09.06l-.17.36c0-.07-.08-.16-.13-.24a.27.27,0,0,0-.36-.14.39.39,0,0,1-.45-.14c-.1-.12-.22-.23-.32-.34a.7.7,0,0,1-.2-.49,2.2,2.2,0,0,1,.16-.84c.07-.18.11-.37.19-.54a.72.72,0,0,0,0-.5,1.06,1.06,0,0,1,0-.5,1.82,1.82,0,0,0,.06-.46.61.61,0,0,1,.24-.43c.11-.08.24-.15.36-.22a3.21,3.21,0,0,0,.5-.31.16.16,0,0,1,.23,0h0a3.41,3.41,0,0,1,.58.62.74.74,0,0,1,.17.43,9.18,9.18,0,0,0,.19.91c0,.1.08.19,0,.3s0,.1,0,.14a2,2,0,0,0,.08.26v.11c-.1.19,0,.39,0,.58a1,1,0,0,1-.16.43.54.54,0,0,0-.08.33v.35c0,.52.12,1,.09,1.55a.32.32,0,0,1-.14.27.31.31,0,0,1-.13.06.61.61,0,0,1-.64-.57A.47.47,0,0,1,60.5,18.22Zm-.17-1.28.34-.27h0a1.92,1.92,0,0,0-.3-.17l-.15.12a.23.23,0,0,0-.06.18c0,.09.07.14.17.18Z" transform="translate(-0.03 0)" fill="#fff"/><path d="M92.6,12.49c-.19-.1-.35,0-.46-.1s0-.25-.09-.37a1.43,1.43,0,0,1,0-.65.09.09,0,0,1,.08-.1h0a.48.48,0,0,1,.58.35s0,.05,0,.07c.13.68.31,1.33.47,2s.32,1.53.52,2.33a5.5,5.5,0,0,0,.27.81.34.34,0,0,1,0,.31l-.14-.37c-.11,0-.11.13-.16.2a.46.46,0,0,1-.52.16.38.38,0,0,1-.13-.09,7,7,0,0,1-.74-.8c-.17-.23-.37-.44-.56-.65-.35-.37-.64-.78-1-1.17-.1,0-.11.07-.1.13.12.5.22,1,.31,1.52a2.86,2.86,0,0,0,.14.58h-.16a.32.32,0,0,1-.2-.18,2.09,2.09,0,0,1,0-.25l-.48-1.91v-.23a1.46,1.46,0,0,0-.35-.89l-.56-.7a.75.75,0,0,1-.1-.2.4.4,0,0,1,.19-.53.43.43,0,0,1,.19,0,.66.66,0,0,1,.39.09,1.1,1.1,0,0,0,.35.74c.58.73,1.19,1.44,1.74,2.2.13.17.3.32.44.48h.09l.17.2a.5.5,0,0,0,.34-.31.2.2,0,0,0,0-.25l-.25-.18a.12.12,0,0,1,0-.17h0a.55.55,0,0,0,.06-.4,3,3,0,0,0-.11-1C92.73,12.81,92.73,12.63,92.6,12.49Z" transform="translate(-0.03 0)" fill="#fff"/><path d="M86.21,16.65l.15-.09c-.08-.14-.16-.27-.23-.41a2.58,2.58,0,0,1-.23-.81c-.06-.32-.13-.63-.2-.95a3.47,3.47,0,0,1-.12-1.11.61.61,0,0,1,0-.19.36.36,0,0,1,.49-.14h0a.79.79,0,0,1,.28.32l.29.07h.12s0-.07-.06-.09a.14.14,0,0,1-.06-.19l.19-.35a1.38,1.38,0,0,1,.26.65.89.89,0,0,1,0,.23.34.34,0,0,0,.07.22.92.92,0,0,1,.17.62v.67a3.53,3.53,0,0,0,0,.65,1.69,1.69,0,0,1,0,.55,1.16,1.16,0,0,0,.07.37,2.76,2.76,0,0,1,.19.75.61.61,0,0,0,0,.19v.3c-.06-.06-.1-.16-.24-.11a1,1,0,0,1,0,.24,1,1,0,0,1,0,.25,1.06,1.06,0,0,1-.58.11.17.17,0,0,1-.06-.19,4,4,0,0,1-.09-.5,1.23,1.23,0,0,0-.42-1S86.23,16.7,86.21,16.65Z" transform="translate(-0.03 0)" fill="#fff"/><path d="M82.94,14.22h.22l.06.06c.19.61.4,1.22.57,1.84a7.11,7.11,0,0,1,.31,1.51,4,4,0,0,0,.16.76.84.84,0,0,0,.1.29.26.26,0,0,1-.06.32.33.33,0,0,1-.35.09.51.51,0,0,1-.29-.17.2.2,0,0,1,0-.27l0,0h.33a.21.21,0,0,0,0-.11.54.54,0,0,0-.26-.16c-.15,0-.22-.14-.26-.3a4.25,4.25,0,0,0-.08-.65,9.25,9.25,0,0,0-.4-1.73c-.18-.51-.37-1-.56-1.52v-.11s-.14-.17,0-.28.12.12.18.18S82.83,14.12,82.94,14.22Z" transform="translate(-0.03 0)" fill="#fff"/><path d="M1.58,15.64c-.13-.46-.28-.91-.38-1.38C1,13.33.8,12.4.68,11.46l.17.34c.06.13.11.27.17.4a.63.63,0,0,0,.31.37.48.48,0,0,1,.23.43.89.89,0,0,1,0,.23,5.6,5.6,0,0,0-.06,1,.38.38,0,0,0,.09.25.72.72,0,0,1,.15.51v.43C1.74,15.56,1.73,15.61,1.58,15.64Z" transform="translate(-0.03 0)" fill="#fff"/><path d="M36.45,16.44a.66.66,0,0,1,.61.18s-.12.08-.12.12a.3.3,0,0,0,.16.32.61.61,0,0,0,.14.07.26.26,0,0,1,.14.34.22.22,0,0,1-.05.08,3.7,3.7,0,0,1-.28.28l-.1-.22-.16.07c-.09-.12-.18-.25-.28-.37a.66.66,0,0,1-.1-.62,1.13,1.13,0,0,0,0-.26Z" transform="translate(-0.03 0)" fill="#fff"/><path d="M66.37,15.63c.09.11.18.19.25.28s.37.46.57.68a.46.46,0,0,1,.15.5l.22.09c0,.17-.15.24-.26.16l-.09-.07a1.29,1.29,0,0,1-.16-.17v-.16a.61.61,0,0,0-.22-.55,2,2,0,0,1-.46-.63A.47.47,0,0,1,66.37,15.63Z" transform="translate(-0.03 0)" fill="#fff"/><path d="M36.58,6l-.14-.19c-.09-.12,0-.22.1-.25l.3-.08a.22.22,0,0,1,.23.12.83.83,0,0,1,.08.22.07.07,0,0,1-.1.1l-.2-.12H36.7Z" transform="translate(-0.03 0)" fill="#fff"/><path d="M89.67,14.67c.14.31.2.57.3.82a1.2,1.2,0,0,1,0,.65.11.11,0,0,0-.09.06A6.13,6.13,0,0,1,89.67,14.67Z" transform="translate(-0.03 0)" fill="#fff"/><path d="M65.2,19.12h0a.49.49,0,0,0,.51-.27h.06v.42a.34.34,0,0,1-.16.21.22.22,0,0,1-.22,0A.6.6,0,0,1,65.2,19.12Z" transform="translate(-0.03 0)" fill="#fff"/><path d="M67.08,17.93l.73.17a1.69,1.69,0,0,1,.24.41H68A2.33,2.33,0,0,1,67.08,17.93Z" transform="translate(-0.03 0)" fill="#fff"/><path d="M45.21,21.92a1,1,0,0,1-.14-.68.82.82,0,0,1,.12-.57C45.22,21.08,45.2,21.47,45.21,21.92Z" transform="translate(-0.03 0)" fill="#fff"/><path d="M86.26,11.77c-.1-.07-.23,0-.34-.06a.2.2,0,0,1,.23-.12.24.24,0,0,1,.21.14,2.44,2.44,0,0,1,.14.28.17.17,0,0,1,0,.1.09.09,0,0,1-.1,0,.09.09,0,0,1-.09-.09h0C86.29,12,86.32,11.85,86.26,11.77Z" transform="translate(-0.03 0)" fill="#fff"/><path d="M42.07,30.93,42,31a.31.31,0,0,0-.15.32,0,0,0,1,1-.07.07h0a.6.6,0,0,1-.06-.19C41.73,31,41.82,30.93,42.07,30.93Z" transform="translate(-0.03 0)" fill="#fff"/><path d="M93.73,17.36a.52.52,0,0,1-.38.24l-.14-.05a.11.11,0,0,1,0-.14A3.05,3.05,0,0,1,93.73,17.36Z" transform="translate(-0.03 0)" fill="#fff"/><path d="M37.87,13.55a.84.84,0,0,1-.2-.4,1.58,1.58,0,0,1,.39.24C38,13.5,37.92,13.49,37.87,13.55Z" transform="translate(-0.03 0)" fill="#fff"/><path d="M82.41,11.22c-.12-.14-.19-.33-.42-.38a.17.17,0,0,1,.24,0h0A.43.43,0,0,1,82.41,11.22Z" transform="translate(-0.03 0)" fill="#fff"/><path d="M50.73,17.22,50.56,17a.23.23,0,0,1,.28.08.17.17,0,0,1,0,.1Z" transform="translate(-0.03 0)" fill="#fff"/></svg>