<svg xmlns="http://www.w3.org/2000/svg" width="107.79" height="34.57" viewBox="0 0 107.79 34.57"><title>Eriksminde-logo</title><path d="M47.9,37.81a.49.49,0,0,1-.35-.13c-.11-.08-.19-.13-.32-.06l-.07,0a.19.19,0,0,1-.22-.17c0-.13,0-.26,0-.39a.34.34,0,0,0-.05-.22c-.06-.12-.1-.24-.15-.36s0,0,0-.07a2,2,0,0,0,0-.34c0-.09-.11-.17-.14-.27a.24.24,0,0,1,0-.18c0-.07.12-.13.18-.2a.25.25,0,0,0,0-.38c-.1-.17-.2-.33-.32-.51l.37-.22a1.15,1.15,0,0,0-.2-.58.29.29,0,0,0-.1-.12.67.67,0,0,1-.17-.47c0-.6,0-1.2,0-1.79,0-.19.08-.36.07-.54a.35.35,0,0,1,.09-.22,2.51,2.51,0,0,1,.27-.37,1,1,0,0,1,.25-.14c.08-.21,0-.45,0-.71l.16.13a.49.49,0,0,0,.15-.36,2.56,2.56,0,0,0-.08-.73.91.91,0,0,0-.15-.27.32.32,0,0,1-.08-.21c0-.31,0-.63,0-.94a.19.19,0,0,1,.16-.15,1.25,1.25,0,0,0,.19,0,.41.41,0,0,0,.32-.5,3.67,3.67,0,0,1,0-.66,2.12,2.12,0,0,0-.07-.61,3.63,3.63,0,0,1,0-1.09c.05-.15,0-.33.07-.49s0-.16,0-.23a1.78,1.78,0,0,1-.11-.65.74.74,0,0,0-.2-.6,2.09,2.09,0,0,0,0-.93.75.75,0,0,1,0-.42,1.63,1.63,0,0,0,0-.73,1.29,1.29,0,0,1,0-.19,8.26,8.26,0,0,0-.1-1c0-.18-.06-.36-.08-.54a.64.64,0,0,0-.14-.27.83.83,0,0,0-.15-.17c0-.35,0-.35-.32-.51l-.22-.11.15-.18s0-.06,0-.08a.81.81,0,0,1,.06-.71c-.05-.13-.1-.27-.14-.4a.67.67,0,0,0-.17-.38l.08-.13a1.26,1.26,0,0,0,.23-.3c0-.12-.1-.23-.11-.36A1.72,1.72,0,0,0,46.4,14a.64.64,0,0,0,.29-.19c0-.12-.11-.17-.17-.25a.2.2,0,0,1,0-.22.7.7,0,0,0,0-.53c0-.17-.09-.35-.14-.52a.87.87,0,0,0-.27-.46.57.57,0,0,1-.15-.22.88.88,0,0,0-.39-.42.23.23,0,0,1-.1-.07.12.12,0,0,1,0-.14c0-.06.08-.1.11-.16a.28.28,0,0,0-.1-.4h0a.39.39,0,0,1-.29-.51c0-.15,0-.31,0-.46a1,1,0,0,0,0-.39c0-.13,0-.26-.06-.38s0-.26,0-.39c-.08-.45-.24-.9-.28-1.36-.07-.14,0-.31-.13-.44a.66.66,0,0,1-.1-.41,2.69,2.69,0,0,0-.06-.85A.25.25,0,0,1,44.61,5a.58.58,0,0,1,.5-.24,3,3,0,0,0,1.14-.22c.35-.12.72-.22,1.07-.33L47.8,4a3.64,3.64,0,0,1,.67-.16A12.12,12.12,0,0,1,50,3.78a2.32,2.32,0,0,1,.94.19,1.94,1.94,0,0,0,.78.22,6.35,6.35,0,0,0,.76.13,2.79,2.79,0,0,1,.72.29,5.2,5.2,0,0,1,1.24,1,10.16,10.16,0,0,1,.67.91c.47.71.92,1.44,1.39,2.16a3.51,3.51,0,0,1,.41,1c.09.4.22.79.32,1.19a3.87,3.87,0,0,1,.17.95c0,.08,0,.16,0,.23s0,.34,0,.5,0,.16,0,.23a2.73,2.73,0,0,1-.11.81c0,.2-.07.41-.12.61a1.78,1.78,0,0,1-.38.75,4.93,4.93,0,0,1-1.62,1.2c-.22.1-.46.17-.69.25s-.22.06-.33.11a.27.27,0,0,0-.12.14,3.51,3.51,0,0,0,.19,1.61c.15.34.33.67.51,1a11,11,0,0,0,.86,1.25.7.7,0,0,1,.16.35.35.35,0,0,0,.14.27.66.66,0,0,1,.27.45,3.58,3.58,0,0,0,.19.55.41.41,0,0,0,.37.29l.3,0a.4.4,0,0,1,.09.48.28.28,0,0,0,0,.22,3.55,3.55,0,0,0,.41.71c.14.19.3.36.45.53.41.46.8.93,1.19,1.4s.65.84.94,1.29a7.23,7.23,0,0,1,.4.66c.16.3.32.6.5.88a5,5,0,0,1,.34.74q.2.51.36,1c.13.42.25.84.37,1.26,0,0,0,.05,0,.1a.9.9,0,0,0-.39-.22s0,.06,0,.08l.24.49a.13.13,0,0,0,.17,0l.16-.13c.11.07.14.2.19.33l-.16.1-.14.07a.45.45,0,0,0,.23.42.41.41,0,0,0,.17.07.49.49,0,0,1,.45.33,10.2,10.2,0,0,0,.54.9s0,.07,0,.07l-.11,0-.07,0a.33.33,0,0,0-.2.34,1.23,1.23,0,0,0,0,.2,1.84,1.84,0,0,1,0,1,3,3,0,0,0,0,.31.81.81,0,0,1,0,.2l-.16-.07a.51.51,0,0,0-.48,0,.3.3,0,0,1-.26,0L62,36.14a.29.29,0,0,0-.39,0l-.24.21a4.38,4.38,0,0,1-.69.42c-.32.17-.66.31-1,.51a.37.37,0,0,1-.14.07.19.19,0,0,1-.19,0s0,0,0,0c-.1-.21-.31-.31-.47-.46l-.31-.3a1,1,0,0,1-.23-.35l-.62-1.38c-.3-.69-.61-1.38-.92-2.06a4,4,0,0,0-.84-1.25,2.55,2.55,0,0,1-.24-.31c-.2-.28-.41-.57-.6-.86a4.37,4.37,0,0,1-.25-.48,3.68,3.68,0,0,0-.21-.45c-.23-.37-.41-.76-.61-1.14-.31-.59-.61-1.2-.93-1.79s-.6-1-.91-1.54c-.13-.22-.28-.44-.41-.66a5.34,5.34,0,0,0-.53-.72.35.35,0,0,0-.28-.14A1.14,1.14,0,0,0,51,24c.1.5.22,1,.29,1.48a4.76,4.76,0,0,1,.13.77,2.91,2.91,0,0,1,0,.66.57.57,0,0,0,.13.38l.29-.23,0,0a8.52,8.52,0,0,1,.1,1.82,4.42,4.42,0,0,1-.13.61c.06.06.11,0,.18,0,0,.33.07.66.09,1,0,.15,0,.31,0,.47,0,.45.08.9.08,1.35a1.31,1.31,0,0,0,.06.27,1.79,1.79,0,0,0,0,.23l.27,0c0,.15-.17.11-.24.17l0,.07a.9.9,0,0,0,0,.46.62.62,0,0,1-.07.63c-.08.09,0,.17,0,.26l-.2.11a.29.29,0,0,0-.17.2,2.6,2.6,0,0,1-.1.25,4.05,4.05,0,0,0-.37,1.18s0,.08,0,.11a.67.67,0,0,1-.45.58c-.22.08-.43.18-.65.24a1,1,0,0,1-.62,0l-1.11-.45a1.83,1.83,0,0,1-.3-.18.12.12,0,0,0-.18.08.4.4,0,0,0,0,.15c0,.25,0,.5,0,.75A.58.58,0,0,1,47.9,37.81Zm6.43-16.67a2.53,2.53,0,0,1-.27-1,.91.91,0,0,0-.33-.72l-.18-.14-.16.23c0,.07-.06.17-.16.19l0,0c0-.17-.09-.27-.27-.26a.24.24,0,0,1-.2-.09l-.28-.3c-.07.08-.14.13-.2.2s-.11.13-.17.2a.73.73,0,0,1-.27-.34l-.21-.37c-.06-.09-.15-.09-.25-.09a.13.13,0,0,0-.1.2c0,.07.1.12.14.18v.28a.72.72,0,0,0,.14.4.42.42,0,0,0,.3.15l-.1.33a2.48,2.48,0,0,0,.4.66.32.32,0,0,0,.26.15c.11,0,.11,0,.23.25l-.21.07a.25.25,0,0,0-.18.19,1,1,0,0,1-.4.6.9.9,0,0,1-.54-.52s-.07-.11-.15-.1-.09.1-.06.2l.07.18a3.83,3.83,0,0,0,.4.67,1.2,1.2,0,0,1,.23.6,1.38,1.38,0,0,0,.11.41c.1.26.21.5.33.75l.67,1.36c.05.09.11.17.17.26a10.58,10.58,0,0,1,.77,1.3c.09.2.22.38.3.59a.86.86,0,0,0,.1.16.94.94,0,0,1,.23.48.65.65,0,0,0,.13.28c.08.13.18.26.26.39a4.89,4.89,0,0,0,.94,1.18,1.53,1.53,0,0,1,.34.42,1.37,1.37,0,0,0,.91.68c.06,0,.14,0,.19.05a1.09,1.09,0,0,1,.48.58,1.06,1.06,0,0,0,.31.49l.22.21a4.61,4.61,0,0,0,.83,0,.3.3,0,0,0,.29-.22c0-.11.06-.23.09-.34s.1-.19.23-.09l.09.07a.21.21,0,0,0,.3-.14.5.5,0,0,0-.06-.34l.21-.08a1.53,1.53,0,0,1-.07-.24.21.21,0,0,1,.08-.21l.1-.06a.27.27,0,0,0,.14-.29.65.65,0,0,0,0-.2A8.33,8.33,0,0,0,60,29.54c-.17-.28-.34-.55-.52-.82a10.05,10.05,0,0,0-1.07-1.43,4.92,4.92,0,0,1-.41-.52,4.3,4.3,0,0,1-.53-1,.93.93,0,0,0-.41-.54.52.52,0,0,1-.19-.2.53.53,0,0,1-.13-.36,1.21,1.21,0,0,1,.23-.68l-.07,0a.54.54,0,0,1-.39-.52,1.25,1.25,0,0,0-.07-.26,1,1,0,0,0-.45-.52c-.26-.17-.51-.32-.6-.63,0,0,0,0,0,0-.2-.24-.39-.48-.58-.73a.28.28,0,0,0-.24-.11ZM48.58,8.69a4.51,4.51,0,0,0,.57.25,1,1,0,0,1,.52.38l.14.19a2.2,2.2,0,0,1,.49,1.43v2a.32.32,0,0,0,.07.27.85.85,0,0,0,.22,0c.2,0,.4-.1.6-.13A2.31,2.31,0,0,0,52.74,12a1.47,1.47,0,0,0,.2-1.15,2,2,0,0,1,0-.42,5.81,5.81,0,0,1,0-.59,1,1,0,0,0-.08-.38l-.39-.93a3.07,3.07,0,0,0-.16-.31A.7.7,0,0,0,52,8a1.79,1.79,0,0,0-.77-.25,1.76,1.76,0,0,0-1.05.22,8.51,8.51,0,0,1-1.44.66S48.65,8.63,48.58,8.69Zm2-2.19a.78.78,0,0,0-.7-.38,1.27,1.27,0,0,0-.71.17c-.13.09-.27.15-.39.24a.86.86,0,0,0-.37.46.82.82,0,0,0,.38,0,8.1,8.1,0,0,1,1.62-.37C50.5,6.59,50.55,6.53,50.61,6.5ZM53,14.22a.33.33,0,0,0-.29,0c-.25.07-.48.17-.74.22s-.6.15-.9.23a.39.39,0,0,0-.16.1s0,.08,0,.1.09.1.15.1a2.26,2.26,0,0,0,.58,0,3.8,3.8,0,0,0,.84-.29A1.18,1.18,0,0,0,53,14.22ZM61.4,34.89a.24.24,0,0,0-.06-.26c-.11-.11-.18-.13-.31-.07l-.55.28a.44.44,0,0,0-.14.13s0,.16,0,.17a.6.6,0,0,0,.4,0A5.83,5.83,0,0,0,61.4,34.89ZM54,19.18a.62.62,0,0,1-.14-.35c0-.11-.07-.16-.17-.17a.22.22,0,0,0-.19,0,.29.29,0,0,0,.07.34A.44.44,0,0,0,54,19.18Zm.39,1a6.18,6.18,0,0,0-.18-.77.39.39,0,0,0-.14.39A.42.42,0,0,0,54.43,20.14Zm6.83,10.72c.08.13.05.28.2.36l.18-.17C61.55,30.94,61.47,30.82,61.26,30.86Zm-1,4.69h.08a.1.1,0,0,0,.07-.12.38.38,0,0,0-.11-.11.11.11,0,0,0-.14,0s-.07.08,0,.13a.07.07,0,0,0,0,.06ZM52.75,18l.26.19s.07,0,.1,0a.07.07,0,0,0,0-.07.45.45,0,0,0-.26-.12Z" transform="translate(-2.27 -3.78)"/><path d="M38.73,20.21a1.35,1.35,0,0,1-.31-.56.76.76,0,0,1-.08-.42l.15-.8a.39.39,0,0,1,.1-.16,1.83,1.83,0,0,0,.5-.6.4.4,0,0,0-.42-.06A2.24,2.24,0,0,0,38,18a.43.43,0,0,0-.16.54,1.47,1.47,0,0,1,.06.14c-.34.49-.32.38-.41,1.3l-.08,0a.54.54,0,0,0-.11.27s0,.11,0,.15a.35.35,0,0,0,.13.5,1.13,1.13,0,0,1,.35.64,1.87,1.87,0,0,0,.14.44.34.34,0,0,0,.24.18l.22.06a.48.48,0,0,1,.41.36l.06.15a.39.39,0,0,0,.2.22c.22.11.43.24.65.36a.87.87,0,0,1,.35.31,1.42,1.42,0,0,1-.26.38l-.27.28a4.73,4.73,0,0,0-.67.81,1.68,1.68,0,0,1-1,.65,5.06,5.06,0,0,1-.67.17l-1,.15a.4.4,0,0,0-.2.11.6.6,0,0,0-.18.42c0,.21,0,.42,0,.62a1.93,1.93,0,0,0,.12.41c.07.19.17.38.24.57a1.41,1.41,0,0,0,.35.51l.56.55a2.79,2.79,0,0,0,.75.61,2.07,2.07,0,0,1,.65.6c.17.22.35.42.53.63s.47.52.7.79.57.67.84,1,.48.52.71.78a.36.36,0,0,0,.43.11,1,1,0,0,1,.49-.06,3.4,3.4,0,0,1,.46.09.2.2,0,0,1,.09.07.42.42,0,0,0,.45.23h.15c.08.06.07.14.08.21a.89.89,0,0,0,.28.53c-.14.06-.3.06-.41.19l0,.29c0,.1,0,.21,0,.32a.35.35,0,0,0,.33,0l.06,0a4.42,4.42,0,0,1,.15.48.19.19,0,0,1-.11.23.56.56,0,0,0-.45.52c-.24.42-.36.88-.57,1.31a.41.41,0,0,1-.39.21h-.08a.65.65,0,0,0-.34-.06c-.23,0-.46-.09-.69-.09A.39.39,0,0,1,41,38a1.17,1.17,0,0,0-.46-.28,6,6,0,0,1-.85-.39,7.09,7.09,0,0,0-1.4-.57l-.54-.2a2,2,0,0,1-.61-.33q-.54-.36-1.05-.75c-.35-.26-.69-.55-1-.83L34.23,34a7.49,7.49,0,0,1-.68-.7,28.4,28.4,0,0,1-1.72-2.5c-.34-.55-.7-1.09-1-1.63a2,2,0,0,0-.4-.48,2.72,2.72,0,0,1-.74-1.17c-.09-.3-.2-.59-.29-.89a2.76,2.76,0,0,1-.16-.91c0-.3-.1-.59-.1-.89-.08-.1,0-.19,0-.29A4.57,4.57,0,0,1,30,22.91a6.37,6.37,0,0,1,.6-.67.36.36,0,0,0,.11-.2.33.33,0,0,0-.19-.35c-.38-.21-.76-.44-1.15-.65A1.34,1.34,0,0,1,28.63,20a3.63,3.63,0,0,0-.21-1c-.05-.1-.08-.22-.14-.32a2.19,2.19,0,0,1-.17-.55,1,1,0,0,1,0-.39c.09-.41.22-.82.28-1.24a1.42,1.42,0,0,1,.11-.33,28,28,0,0,1,1.38-3l.43-.78a5.54,5.54,0,0,0,.45-1c-.05-.05-.09,0-.13,0l-.2.28c0-.07,0-.12,0-.14.1-.19.21-.38.33-.58l.56-1a3.56,3.56,0,0,1,1-1.08l1.19-.94.41-.3a1,1,0,0,0,.4-.46,1.09,1.09,0,0,1,.51-.57c.13-.08.25-.19.37-.28a.36.36,0,0,1,.46,0s.06.06.1.07a.77.77,0,0,0,.52,0,1.25,1.25,0,0,1,.61-.1l.46.06c.25-.11.45-.37.72-.52l.26.16a1,1,0,0,0,.3.08.52.52,0,0,1,.36.27.58.58,0,0,0,.41.27,3.45,3.45,0,0,0,.85.07,1,1,0,0,1,.52.14c.07,0,.15.09.22.15a.49.49,0,0,1,.21.43,1.18,1.18,0,0,0,0,.27A2.17,2.17,0,0,1,41.2,8.8c-.12-.11-.2-.21-.14-.38a.26.26,0,0,0,0-.15,5.63,5.63,0,0,0-.38-.68.12.12,0,0,0-.1,0,.11.11,0,0,0-.08.07.42.42,0,0,0,0,.15c0,.17,0,.34,0,.51a.85.85,0,0,1-.32.68c-.08.08-.18,0-.21-.07a2.73,2.73,0,0,1-.1-.41.22.22,0,0,1,0-.08.1.1,0,0,0-.11-.09.12.12,0,0,0-.12.07l-.1.22c-.1,0-.16-.07-.24-.1l-.06,0L39,8.7a.27.27,0,0,1-.21.09.33.33,0,0,0-.34.15l-.1.07-.17-.15-.14-.13c-.14,0-.14,0-.25.18a2.73,2.73,0,0,0,.38.74A1.49,1.49,0,0,0,38,10a1.41,1.41,0,0,0,0,.41l-.23.36a2.68,2.68,0,0,1,.07.93c.31.09.38.08.58-.09l1.57-1.34.78-.63c.08,0,.11.05.1.1a1.36,1.36,0,0,1,0,.2,1.21,1.21,0,0,1,0,.18,1.14,1.14,0,0,0,0,.94,1.64,1.64,0,0,1-.27.32l-.22.22a.18.18,0,0,0,0,.22c0,.06.13.09.09.2l-.1,0a.26.26,0,0,0-.27.17,1,1,0,0,1-.15.21c0,.18.25.14.31.31l-.25.23c-.13.1-.18.21-.08.36a.19.19,0,0,1,0,.19c-.1.15-.2.3-.29.46l-.26.48a.35.35,0,0,0,0,.37l.12.19.18.26a1.63,1.63,0,0,0-.11.17.09.09,0,0,0,0,.13c.08,0,.19.05.24.11a2.71,2.71,0,0,1,.23.41s0,0,0,.05l-.09,0h-.47a.27.27,0,0,0-.26.37.32.32,0,0,1,0,.27c-.07.17-.13.36-.19.55,0,0,.07,0,.11,0s.11-.05.14,0a.38.38,0,0,1,.18.15,3,3,0,0,1,.15.36l.18-.15s.07,0,.07.08,0,.2,0,.31l.12-.05c.07,0,.1,0,.08.07a.15.15,0,0,1,0,.07.1.1,0,0,0,0,.14l.18.14s0,0,0,0c0,.29,0,.29.29.47a.88.88,0,0,1,0,.17c0,.05,0,.11,0,.15l.18.15v.08l-.12.48a.15.15,0,0,1-.06.05l-.07,0L40.38,20c-.08-.12-.16-.23-.23-.36a.51.51,0,0,0-.25-.23l-.31-.16c0-.09,0-.17,0-.25s0-.31,0-.44.12,0,.16,0l.1,0a.27.27,0,0,0,0-.27c-.21-.05-.21-.05-.35-.25a1.21,1.21,0,0,0-.19.2,1.55,1.55,0,0,1-.38.43.27.27,0,0,0-.09.21.48.48,0,0,0,0,.12,1.23,1.23,0,0,1-.11.68,1.4,1.4,0,0,0,0,.54Zm-4.17,5.58c-.14,0-.26-.11-.41-.09a.26.26,0,0,1-.21-.08.88.88,0,0,0-.45-.23c-.12-.05-.19,0-.16.17a.36.36,0,0,0,0,.11l.53,1A8.57,8.57,0,0,0,35,28.32a6.06,6.06,0,0,1,.69,1A5.11,5.11,0,0,0,36,30a2.61,2.61,0,0,0,.41.52c.28.28.56.54.86.79a14,14,0,0,0,1.47,1.09,5.68,5.68,0,0,0,1.3.6s.1,0,.13-.05a5,5,0,0,0-1.42-1.14,1.85,1.85,0,0,0-.11-.24,1.55,1.55,0,0,0-.36-.45c-.36-.4-.82-.68-1.18-1.08a.35.35,0,0,0-.17-.09,1,1,0,0,0-.41-.07.31.31,0,0,1-.29-.23s0-.05,0-.06l.08-.06c-.05-.13-.17-.11-.26-.15a.47.47,0,0,1-.35-.38,1.41,1.41,0,0,0-.06-.22,1.92,1.92,0,0,0-.4-.84,2.09,2.09,0,0,1-.45-.89c0-.16-.06-.33-.1-.49S34.62,26,34.56,25.79Zm1.26-11.38a1.68,1.68,0,0,0-.19.19c-.09.18-.19.37-.27.56a9.74,9.74,0,0,0-.31,1.32c-.08.33,0,.7-.3,1,0,0,0,.05,0,.08a2.16,2.16,0,0,0,0,1.07c0,.14,0,.29.05.43a.57.57,0,0,1-.22.59.3.3,0,0,0-.11.27,2.18,2.18,0,0,0,.14.84c.1.06.24,0,.31.13s0,.09,0,.13-.07.08,0,.17l.27.14c.16-.13,0-.23,0-.33a.16.16,0,0,1,0-.07c.15-.16.22-.18.41-.11l.21.09c.08-.16,0-.34.06-.49.15,0,.15,0,.27,0s0-.33,0-.5a.32.32,0,0,0-.09-.25.29.29,0,0,1-.08-.25c0-.18,0-.36,0-.55a2.44,2.44,0,0,0,0-.27s0-.05-.08-.06,0,0-.07,0a.24.24,0,0,0-.08.2v1.14a.18.18,0,0,1,0,.09.18.18,0,0,1-.11-.16c0-.08,0-.17,0-.23a2.72,2.72,0,0,1-.1-.57,2.58,2.58,0,0,1,0-.62c0-.25,0-.5,0-.75a2,2,0,0,1,0-.23,1.43,1.43,0,0,0,0-.65,1.44,1.44,0,0,1,0-.62c.06-.25.15-.5.21-.75A9.94,9.94,0,0,0,35.82,14.41Zm-2.47-4.2c0,.06,0,.08,0,.11a.75.75,0,0,1-.26.66,1.71,1.71,0,0,1-.39.32.58.58,0,0,0-.31.43c0,.1-.07.19-.1.29l0,.05h0l.29-.27,1.31-1.39c.11-.12.27-.21.27-.41,0,0,.07-.07.09-.12l.33-.48a.3.3,0,0,0,0-.23s-.07-.09-.12-.08a.3.3,0,0,0-.1,0,1,1,0,0,1-.41.29,1,1,0,0,0-.13.09l.13.16a2.39,2.39,0,0,0-.21.26,2.15,2.15,0,0,0-.13.32h0Zm4.14,8.07a.81.81,0,0,0,.14-.19c.11-.38.21-.76.32-1.15s.29-1.06.43-1.59c0-.1,0-.2.07-.3s0,0,0-.06-.12,0-.15.09a5.62,5.62,0,0,0-.25.56,8.15,8.15,0,0,0-.31,1.07c-.1.39-.16.78-.23,1.17A2.64,2.64,0,0,0,37.49,18.28Zm-.84-4.56.09.09s0,0,.09.07a6,6,0,0,0,.56-.93.17.17,0,0,0-.16-.16.14.14,0,0,0-.11,0,2.26,2.26,0,0,0-.63.78.18.18,0,0,0,0,.19Zm1.16,1,.24-.38c.21-.34.42-.68.62-1l.36-.6s0-.07,0-.12l-.11.09a6.79,6.79,0,0,0-1.12,1.89A.5.5,0,0,0,37.81,14.75Zm-2.58-5.4A7.26,7.26,0,0,0,36,8.46a.23.23,0,0,0,0-.11c0-.06.07-.11,0-.19a1.12,1.12,0,0,0-.6.57A.7.7,0,0,0,35.23,9.35Zm.71,7.34a2.78,2.78,0,0,0,.37-1.33s0-.1-.05-.11a2.81,2.81,0,0,0-.34,1A.71.71,0,0,0,35.94,16.69ZM35.71,18l0,0c.06.06.14.06.16,0a1.48,1.48,0,0,0,.08-.72.12.12,0,0,0,0-.1s-.07,0-.1,0-.06,0-.07.07C35.74,17.49,35.73,17.74,35.71,18Zm6.17,16.51a1.67,1.67,0,0,0-.7,1.11A3,3,0,0,0,41.88,34.51ZM38,17.21a2.25,2.25,0,0,0,0,.26.16.16,0,0,0,.11.15,1.59,1.59,0,0,0,.21-.15.3.3,0,0,0,0-.36c-.09-.06-.17,0-.25,0Zm-1.33,3.9.14.1-.07.2,0,0,.3.08,0,0s0,0,0,0v-.24c0-.2-.1-.26-.31-.2Zm.58-6c-.2.12-.19.35-.25.53a.67.67,0,0,0,0,.5C37.25,15.33,37.25,15.33,37.21,15.08ZM31,16.73a.36.36,0,0,0-.12.29c0,.12,0,.23,0,.34s-.05.46-.1.68c0,0,0,0,.06,0s.06,0,.06,0l0-.38c0-.12.06-.25.07-.37a1.36,1.36,0,0,1,.08-.49A.41.41,0,0,0,31,16.73Zm5.38-2c.12,0,.16,0,.2,0a.58.58,0,0,0,.17-.37.2.2,0,0,0,0-.11s-.05-.07-.08-.07a.13.13,0,0,0-.09,0C36.44,14.44,36.38,14.61,36.33,14.78Zm3.06-2.64.15-.07L39.6,12a.13.13,0,0,0-.05-.24.27.27,0,0,0-.26,0,.24.24,0,0,0-.09.26Zm-.23,1.37a.41.41,0,0,0-.19.24c0,.15,0,.28.07.27a.34.34,0,0,0,.23-.22A.24.24,0,0,0,39.16,13.51ZM36,21.32c.1-.08.25-.06.3-.21C36.07,21,36.05,21,36,21s-.14.05-.18.14Zm1.48,0s-.05,0,0,0a3.4,3.4,0,0,0,.07.34c0,.05.06.07.12.07a.11.11,0,0,0,.11-.12.35.35,0,0,0-.22-.33Zm1.18-5,0-.06a.16.16,0,0,0-.27.06.11.11,0,0,0,.08.11A.21.21,0,0,0,38.64,16.35Zm.75-.56-.34-.11a.06.06,0,0,0-.08.06s0,.08.05.08A.49.49,0,0,0,39.39,15.79Z" transform="translate(-2.27 -3.78)"/><path d="M101.55,19.16a.28.28,0,0,1-.08.21l-.22.32a1.09,1.09,0,0,1-.34.37,1.27,1.27,0,0,1-.19.13.89.89,0,0,0-.5.56.31.31,0,0,1-.15.17,4.4,4.4,0,0,1-.84.29.54.54,0,0,1-.45-.07A1.69,1.69,0,0,0,98.4,21a.37.37,0,0,1-.3-.43s0-.05,0-.08a.39.39,0,0,0-.46-.11l-.19,0H97.2c-.07-.16,0-.34-.11-.49A2.64,2.64,0,0,1,97,19.4a1.24,1.24,0,0,1,0-.27c0-.42,0-.84,0-1.25,0-.14,0-.28.06-.42s0-.45,0-.67a1.65,1.65,0,0,0-.05-.38,2.75,2.75,0,0,1-.12-.57,1.24,1.24,0,0,0-.21-.58c-.11-.17-.11-.17,0-.39-.09-.15-.32-.16-.38-.37s.18-.2.27-.3a.11.11,0,0,0,0-.17L96.34,14l-.21-.09s-.09-.14-.07-.17a.57.57,0,0,1,.11-.11.2.2,0,0,1,.11,0,1.62,1.62,0,0,1,.62.06,3.44,3.44,0,0,0,1,0,1.87,1.87,0,0,1,.34,0,.23.23,0,0,1,.24.17c.13.36.24.31.5.31h.39a3.61,3.61,0,0,1,1.64.4l1.2.64a.32.32,0,0,0,.3,0l0,0a.19.19,0,0,1,.18,0,5,5,0,0,0,1.2.29l.54.08a.27.27,0,0,0,.28-.17l0-.07a.33.33,0,0,0,0-.4l-.15-.16c.06-.1.23-.12.15-.27s.14,0,.2-.05a.66.66,0,0,0,.53-.27l.15-.18a.57.57,0,0,1,.47-.23.29.29,0,0,0,.22-.07.58.58,0,0,1,.28-.12,1,1,0,0,1,.42,0l.65.09a2.38,2.38,0,0,1,1.39.63,1.4,1.4,0,0,1,.39,1.49,2.07,2.07,0,0,1-.77,1l-.16.11a1.49,1.49,0,0,1-.74.22,5.61,5.61,0,0,1-.58,0,8.31,8.31,0,0,0-.86.07.29.29,0,0,0-.25.21,1.62,1.62,0,0,0-.09.38,7.58,7.58,0,0,1-.23.94.7.7,0,0,1-.35.44.18.18,0,0,0-.07.05.29.29,0,0,0-.1.41,2.34,2.34,0,0,0,.46.71,6.07,6.07,0,0,0,.94.75.76.76,0,0,0,.18.09.17.17,0,0,0,.18,0l.12-.1a1.33,1.33,0,0,1,.53-.4c.11.19.29.3.33.53a.3.3,0,0,0,.31.24,2.92,2.92,0,0,0,.78,0,1.88,1.88,0,0,0,.56-.16.19.19,0,0,1,.21,0,1.12,1.12,0,0,1,.18.2.26.26,0,0,1,0,.15c0,.12-.09.24-.24.29a1.74,1.74,0,0,1-.55.16c-.25,0-.49.08-.74.07s-.49,0-.74,0h-.2l-.12-.58-.11,0c-.07,0-.13-.07-.22,0a.37.37,0,0,0-.2.17l-.06.12c-.08.06-.12,0-.15,0a8.81,8.81,0,0,1-.78-.52,3.83,3.83,0,0,1-1.21-1.6,4.66,4.66,0,0,1-.26-.88,2.15,2.15,0,0,1,0-.62,7,7,0,0,1,.18-.79,1.79,1.79,0,0,0-.06-1,.34.34,0,0,0-.36-.24A.58.58,0,0,0,104,16a1.18,1.18,0,0,1-.49.12c-.1.12-.06.24,0,.37l.24.65a.27.27,0,0,1,0,.15,1.36,1.36,0,0,1-.29.59,5.46,5.46,0,0,1-.79.57,7.31,7.31,0,0,0-.87.58.55.55,0,0,1-.18.06,3.11,3.11,0,0,1,.52-.63,3.41,3.41,0,0,0,.46-.47v-.36a2.6,2.6,0,0,1,.46-.12.18.18,0,0,0,.13-.27.93.93,0,0,0,0-.1,6.39,6.39,0,0,0-.65-.92,2.14,2.14,0,0,0-.71-.59,1.74,1.74,0,0,1-.66-.47.31.31,0,0,0-.09-.07,2.51,2.51,0,0,0-1.36-.4q-.31,0-.18.3a2,2,0,0,1,.1.21,3,3,0,0,1,.17.47c.07.28.11.56.17.84s.1.47.14.71a10,10,0,0,1,.18,1.07.47.47,0,0,0,.17.38l.18.14a.5.5,0,0,0-.28.55.59.59,0,0,1,0,.37c0,.07,0,.16.1.19a.17.17,0,0,0,.19,0c.17-.13.34-.28.51-.42Zm5.25-2.82a1.21,1.21,0,0,0,.79.1,1.6,1.6,0,0,0,.83-.29,2.13,2.13,0,0,0,.51-.57.11.11,0,0,0,0-.07.8.8,0,0,0-.39-.93,2.14,2.14,0,0,0-.47-.2.42.42,0,0,0-.54.17l-.07.09c-.22.46-.45.91-.67,1.36A.37.37,0,0,0,106.8,16.34Z" transform="translate(-2.27 -3.78)"/><path d="M72.58,11h.35a.23.23,0,0,1,.17.37l-.11.12a5.44,5.44,0,0,1-.42.41,5.46,5.46,0,0,0-.92,1c-.38.54-.76,1.08-1.15,1.61-.18.24-.37.46-.56.7a2.92,2.92,0,0,0-.21.28.26.26,0,0,0,0,.29,2.4,2.4,0,0,0,.18.26,3.61,3.61,0,0,1,.69,1.5l0,.19v.94a.57.57,0,0,1-.29.48l-.39.2a.36.36,0,0,0,.1.34c.12.19.26.36.38.54.35.5.71,1,1,1.5.24.34.46.69.69,1l.13.2a.3.3,0,0,1,0,.36,1.64,1.64,0,0,1-.14.22.57.57,0,0,1-.4-.17l-.88-.71-.15-.11c0-.07,0-.13,0-.19a.43.43,0,0,0-.18-.54l-.24-.11a1,1,0,0,1-.39-.32s0-.05,0-.09a.47.47,0,0,1,.47.06l.3.18a.53.53,0,0,0,.3.05c.07,0,.14-.12.09-.18a.57.57,0,0,0-.13-.14.8.8,0,0,1-.22-.32,3.6,3.6,0,0,0-.54-.85l-.58-.74c0-.12.09-.11.12-.18s-.07-.08-.12-.08a2.94,2.94,0,0,1-.8-.38.52.52,0,0,1-.17-.16,1.57,1.57,0,0,1-.15-.19l.07-.18a1.23,1.23,0,0,0,0-.19.2.2,0,0,0-.07-.09s-.05,0-.07,0l-.06.05a2,2,0,0,0-.11.2,2.92,2.92,0,0,0-.12.49.94.94,0,0,0,0,.5.77.77,0,0,1,0,.3,1.65,1.65,0,0,0,0,.7,1.31,1.31,0,0,1,0,.34c0,.22-.06.44-.09.66a.2.2,0,0,1-.21,0l-.59-.2-.12.1a.08.08,0,0,1-.13,0c-.06-.16-.12-.32-.17-.48a8.09,8.09,0,0,1-.22-1.09,1.26,1.26,0,0,0-.14-.44.89.89,0,0,1-.12-.52c0-.2,0-.4,0-.59a6.39,6.39,0,0,0-.35-2.13c-.06-.18-.12-.34-.19-.51a4.61,4.61,0,0,1-.24-1.84c0-.1.06-.2,0-.3s.1-.43,0-.65,0-.42-.09-.61a9.37,9.37,0,0,1-.1-1.67s0-.08,0-.12a.19.19,0,0,1,.15-.11s.12,0,.15,0a.38.38,0,0,0,.44,0l0,0,.08,0c.3.07.57-.17.88-.07a.38.38,0,0,1,.12.42,2.54,2.54,0,0,0-.07.77,5,5,0,0,0,0,.67,6.09,6.09,0,0,0,.1.73,1.48,1.48,0,0,0,.14.32l.29.12a.31.31,0,0,1,.24.35c0,.28,0,.57,0,.86a.53.53,0,0,0,.17.41.61.61,0,0,0,.37-.27c.37-.55.75-1.1,1.13-1.63.2-.28.42-.53.63-.79a.44.44,0,0,1,.3-.17c.23,0,.46-.1.69-.1a.81.81,0,0,0,.55-.18C72.17,11.27,72.38,11.13,72.58,11Zm-3,5.77c-.08.06-.18.1-.21.17-.19.34-.36.7-.52,1.05a.32.32,0,0,0,0,.3,1.07,1.07,0,0,0,.32.38.6.6,0,0,0,.54.15.37.37,0,0,0,.3-.17.89.89,0,0,0,.11-.64l-.3-1A.42.42,0,0,0,69.53,16.76ZM71,22.44a5.84,5.84,0,0,0,.89.84.24.24,0,0,0,.29,0c.08-.05.06-.15,0-.25l-.42-.26a.36.36,0,0,1-.18-.24s0-.1,0-.15a.31.31,0,0,0-.26-.25.24.24,0,0,0-.28.16Z" transform="translate(-2.27 -3.78)"/><path d="M5.72,20a.76.76,0,0,0,.06-.43.07.07,0,0,0,0,0,.06.06,0,0,0-.07,0,.39.39,0,0,1-.24.23.12.12,0,0,0-.09.15c0,.1,0,.2,0,.3s0,0,0,0-.06,0-.07,0a1.4,1.4,0,0,1-.35-.6A2.83,2.83,0,0,0,4.74,19a.27.27,0,0,1,0-.26,1.09,1.09,0,0,0,0-.69.8.8,0,0,1,0-.15,5.75,5.75,0,0,0-.26-1.48,2,2,0,0,1,0-.42c0-.43,0-.86,0-1.29a2.69,2.69,0,0,0-.11-.69L4.22,14c-.31.08-.57.22-.62.58l-.22-.15a.67.67,0,0,0-.52.61,1.49,1.49,0,0,1,0-.51,1.09,1.09,0,0,0-.23-.76l-.3-.46a.13.13,0,0,1,.06-.2l.1-.06a.41.41,0,0,1,.59.09l.22.21.07,0A1.2,1.2,0,0,0,3.88,13a.87.87,0,0,1,.54.47.26.26,0,0,1,0,.15.69.69,0,0,0,0,.49l.47,1.35L5.79,18a2.77,2.77,0,0,0,.1.26,17.38,17.38,0,0,0,.87,1.51.24.24,0,0,0,.09.08.11.11,0,0,0,.1,0A.24.24,0,0,0,7,19.67c.06-.22.11-.45.17-.67a1.23,1.23,0,0,1,.21-.43h.26s.05,0,.06,0l.09-.17c.14-.21,0-.4,0-.59a.2.2,0,0,0-.11-.11l-.31-.13a.17.17,0,0,1,.07-.22.67.67,0,0,1,.75-.14s.08,0,.14,0l.12-.32L9,15.1a3.31,3.31,0,0,0,.14-.41,2.91,2.91,0,0,1,.49-1,.21.21,0,0,1,.3-.06.34.34,0,0,1,.17.25,1.62,1.62,0,0,0,.07.62,4.84,4.84,0,0,1-.06,1.2c0,.15,0,.32-.07.46a5,5,0,0,1-.28,1c0,.13-.09.27-.14.4a2,2,0,0,0-.08.42,2.34,2.34,0,0,1,0,.26.25.25,0,0,0,0,.12c.09.41.08.85.2,1.26a.94.94,0,0,1,0,.24A9.3,9.3,0,0,0,9.35,19s-.1.07-.1.11a3.31,3.31,0,0,0-.09.62c0,.32-.07.64-.07,1s0,.62,0,.93,0,.62-.07.93a4.61,4.61,0,0,1-.15.72.18.18,0,0,1-.19.16,2,2,0,0,1-.35,0,.38.38,0,0,1-.19-.05.68.68,0,0,0-.44-.1,1.35,1.35,0,0,1-.35,0,1,1,0,0,1-.61-.45.43.43,0,0,1-.06-.22.36.36,0,0,0-.27-.42s-.06,0-.09-.08.14,0,.2-.05a.29.29,0,0,0,.26-.14.19.19,0,0,0,0-.25,2.4,2.4,0,0,1-.16-.27.76.76,0,0,0-.36-.43A.6.6,0,0,1,6,20.58,4.4,4.4,0,0,0,5.72,20Zm.48.18,0,.11c.13.29.27.58.41.87l.05.1.07,0a.08.08,0,0,0,0-.06.4.4,0,0,0,0-.26A2.86,2.86,0,0,0,6.2,20.19Zm2.46-2.3a.85.85,0,0,0-.17.42s.06.08.1.1a.18.18,0,0,0,.09-.06c0-.12.05-.25.06-.38S8.69,17.92,8.66,17.89ZM5.24,19.1,5,19.42a.66.66,0,0,0,.15.07c.06,0,.08,0,.08-.14S5.25,19.22,5.24,19.1Z" transform="translate(-2.27 -3.78)"/><path d="M82.71,18.33l.06,0a9.14,9.14,0,0,0,1-2.16,2.85,2.85,0,0,0,.12-.72c0-.07,0-.15.12-.16l.12,1c0,.07.12.14.19.22s.09.12.13.19a.23.23,0,0,1,0,.26c-.06.11-.12.22-.19.33-.18.32-.37.63-.56.94l-.09.17c0,.14.14.26.07.41-.28.08-.28.08-.39.31s-.11.24-.18.35,0,.13,0,.22l-.29-.09a1.11,1.11,0,0,1-.26-.07.44.44,0,0,1-.13-.14c0-.09-.06-.2-.1-.29S82.24,19,82.2,19a.33.33,0,0,0-.13.13.31.31,0,0,0,0,.19c.08.31.18.62.27.93a8.32,8.32,0,0,1,.27,1.2,5.25,5.25,0,0,0,.13.57c0,.1,0,.21,0,.31a.33.33,0,0,1-.23.36c-.43.2-.85.44-1.3.61l-.14,0a.23.23,0,0,1-.29-.14l-.15-.43a.59.59,0,0,1,0-.59.18.18,0,0,0,0-.25,1.07,1.07,0,0,1-.26-.64c0-.26-.11-.53-.17-.79s-.07-.46-.13-.68-.09-.48-.14-.73c0,0,0-.1,0-.15a7.4,7.4,0,0,0-.22-1.41c0-.21-.06-.41-.1-.61-.09-.43-.11-.88-.22-1.3a.89.89,0,0,1,0-.23,3.78,3.78,0,0,0-.06-.47,1.48,1.48,0,0,1,.07-.72.18.18,0,0,1,.08-.13,2.4,2.4,0,0,1,.69-.26.24.24,0,0,1,.25.06c.12.13.26.26.39.38a1.05,1.05,0,0,1,.36.75,5.54,5.54,0,0,0,.53,1.93,7.41,7.41,0,0,0,.56.89l.21.28C82.55,18.17,82.63,18.24,82.71,18.33Z" transform="translate(-2.27 -3.78)"/><path d="M15.2,22.8c-.14-.11-.17-.28-.27-.42a2.14,2.14,0,0,1-.28-.92,2.68,2.68,0,0,0-.11-.49,4.44,4.44,0,0,1-.22-1.26c0-.36-.07-.72-.09-1.08a3.56,3.56,0,0,0-.16-.84,1.42,1.42,0,0,0-.2-.41,3.72,3.72,0,0,0-.19-.34.35.35,0,0,1-.06-.26.64.64,0,0,1,.06-.18c0-.07.11-.06.17-.07a.17.17,0,0,0,.16-.14s0,0,0,0a4.62,4.62,0,0,1,.06-.74,1.41,1.41,0,0,0-.06-.76c0-.29,0-.58,0-.86a.53.53,0,0,1,.4-.39.32.32,0,0,1,.21.08,1.13,1.13,0,0,1,.23.26l.47.76a2.12,2.12,0,0,0,.41.57.65.65,0,0,1,.22.36c.27.82.55,1.64.82,2.46a4.35,4.35,0,0,1,.18.71,1.25,1.25,0,0,1-.05.69c0,.08-.05.17-.08.26a.85.85,0,0,0,0,.68,2.63,2.63,0,0,1-.06,1.08,2,2,0,0,0-.06,1c0,.3.09.61.14.92a6.25,6.25,0,0,0,.25,1.2.32.32,0,0,1,0,.27c-.09.23-.22.29-.45.19a.54.54,0,0,1-.31-.28c0-.06-.06-.12-.08-.18a2.81,2.81,0,0,0-.46-.85c-.19-.26-.35-.54-.53-.81,0,0,0-.08,0-.12s.29.16.44,0,0,0,0-.07a.4.4,0,0,0-.24-.22C15.39,22.65,15.25,22.68,15.2,22.8Z" transform="translate(-2.27 -3.78)"/><path d="M74.54,18.39c.06.15.17.17.26.22a4.85,4.85,0,0,1,.71.47,2,2,0,0,1,.62.82c.15.35.33.68.5,1a3.5,3.5,0,0,1,.3.84,1.69,1.69,0,0,1,0,.5.48.48,0,0,1-.22.39,4.37,4.37,0,0,1-.48.25,10.87,10.87,0,0,1-1.08.3l-.12,0c-.23.07-.25.13-.1.35a2.53,2.53,0,0,1,.12.23c-.16.34-.17.36-.49.33a1.72,1.72,0,0,1-.38-.08,2.42,2.42,0,0,1-.92-.39l-.23-.2A.34.34,0,0,1,73,23.2.22.22,0,0,1,73.1,23a2,2,0,0,1,.59-.17L75,22.58c.22,0,.44,0,.65-.1a3.26,3.26,0,0,0,.44-.15.38.38,0,0,0,.22-.51c0-.13-.09-.25-.13-.37A6.54,6.54,0,0,0,75.48,20a2.11,2.11,0,0,0-1-.85,4.56,4.56,0,0,0-1.3-.35.79.79,0,0,1-.26-.08.62.62,0,0,1-.25-.34c0-.11,0-.2,0-.29a.94.94,0,0,1,.06-.15l.56-.88a4.62,4.62,0,0,1,1.23-1.3,6.58,6.58,0,0,1,.63-.38c.26-.14.53-.26.8-.4a1.15,1.15,0,0,1,.33-.1,1,1,0,0,1,.84.27.5.5,0,0,1,.16.3,10,10,0,0,1,.09,1.09.32.32,0,0,1-.21.3.38.38,0,0,1-.43-.05.35.35,0,0,0-.32-.1.64.64,0,0,0-.18.06,2,2,0,0,0-.87.82,2.29,2.29,0,0,1-.66.69Zm-.36,5.31c.07.1.13.18.25.19l.16-.11a.07.07,0,0,0,0-.06c0-.14-.08-.21-.17-.28s-.13,0-.19.1A.79.79,0,0,0,74.18,23.7Z" transform="translate(-2.27 -3.78)"/><path d="M62.77,22l.18.09c0,.1,0,.2,0,.3a.25.25,0,0,0,.06.14.12.12,0,0,0,.14.05.62.62,0,0,0,.41-.46,1.28,1.28,0,0,0-.14-.25,1.09,1.09,0,0,1-.1-.25.25.25,0,0,0-.31-.21l-.24-.28s-.08,0-.09.06l-.17.36c0-.07-.08-.16-.13-.24a.28.28,0,0,0-.36-.14.4.4,0,0,1-.45-.14c-.1-.12-.22-.23-.32-.34a.66.66,0,0,1-.2-.49,2.2,2.2,0,0,1,.16-.84c.07-.18.11-.37.19-.54a.67.67,0,0,0,0-.5,1,1,0,0,1,0-.5,2.32,2.32,0,0,0,.06-.46.61.61,0,0,1,.24-.43c.11-.08.24-.15.36-.22a3.21,3.21,0,0,0,.5-.31.16.16,0,0,1,.24,0,3.78,3.78,0,0,1,.58.62.83.83,0,0,1,.17.43,9.18,9.18,0,0,0,.19.91c0,.1.08.19,0,.3s0,.1,0,.14a2,2,0,0,0,.08.26s0,.09,0,.11c-.1.19,0,.39,0,.58a.9.9,0,0,1-.16.43.51.51,0,0,0-.08.33c0,.09,0,.18,0,.27s0,.05,0,.08c0,.52.12,1,.09,1.55a.33.33,0,0,1-.14.27.38.38,0,0,1-.13.06A.61.61,0,0,1,62.77,22Zm-.17-1.28.34-.27s0,0,0,0-.19-.13-.3-.17l-.15.12a.23.23,0,0,0-.06.18C62.44,20.67,62.5,20.72,62.6,20.76Z" transform="translate(-2.27 -3.78)"/><path d="M94.87,16.27c-.19-.1-.35,0-.46-.1s0-.25-.09-.37a1.43,1.43,0,0,1,0-.65.09.09,0,0,1,.1-.1.48.48,0,0,1,.59.42c.13.68.31,1.33.47,2S95.8,19,96,19.8a6.41,6.41,0,0,0,.27.81.32.32,0,0,1,0,.31l-.14-.37c-.11,0-.11.13-.16.2a.46.46,0,0,1-.52.16.6.6,0,0,1-.13-.09,7,7,0,0,1-.74-.8c-.17-.23-.37-.44-.56-.65-.35-.37-.64-.78-1-1.17-.1,0-.11.07-.1.13.12.5.22,1,.31,1.52,0,.18.09.37.14.58-.06,0-.12,0-.16,0a.32.32,0,0,1-.2-.18A1.42,1.42,0,0,1,93,20l-.48-1.91a1.79,1.79,0,0,1,0-.23,1.46,1.46,0,0,0-.35-.89l-.56-.7a.75.75,0,0,1-.1-.2.4.4,0,0,1,.38-.57.72.72,0,0,1,.39.09,1.12,1.12,0,0,0,.35.74c.58.73,1.19,1.44,1.74,2.2.13.17.3.32.44.48L94.9,19l.17.2a.5.5,0,0,0,.34-.31.2.2,0,0,0,0-.25l-.25-.18a.12.12,0,0,1,0-.17.55.55,0,0,0,.06-.4c0-.34,0-.7-.11-1S95,16.41,94.87,16.27Z" transform="translate(-2.27 -3.78)"/><path d="M88.48,20.43l.15-.09c-.08-.14-.16-.27-.23-.41a2.51,2.51,0,0,1-.23-.81c-.06-.32-.13-.63-.2-.95a3.75,3.75,0,0,1-.12-1.11.63.63,0,0,1,0-.19.36.36,0,0,1,.51-.13.8.8,0,0,1,.28.32l.29.07c.05,0,.11,0,.12,0s0-.07-.06-.09-.1-.12-.06-.19l.19-.35a1.36,1.36,0,0,1,.26.65,1.76,1.76,0,0,1,0,.23.34.34,0,0,0,.07.22.93.93,0,0,1,.17.62v.67a3.56,3.56,0,0,0,0,.65,1.69,1.69,0,0,1,0,.55,1.16,1.16,0,0,0,.07.37,2.76,2.76,0,0,1,.19.75,1.05,1.05,0,0,0,0,.19c0,.1,0,.2,0,.3-.06-.06-.1-.16-.24-.11a1.79,1.79,0,0,1,0,.24,2.08,2.08,0,0,1,0,.25,1,1,0,0,1-.58.11A.17.17,0,0,1,89,22a4,4,0,0,1-.09-.5,1.24,1.24,0,0,0-.42-1S88.5,20.48,88.48,20.43Z" transform="translate(-2.27 -3.78)"/><path d="M85.21,18h.22s0,0,.06.06c.19.61.4,1.22.57,1.84a7.11,7.11,0,0,1,.31,1.51,4,4,0,0,0,.16.76c0,.09.06.2.1.29a.26.26,0,0,1-.06.32.33.33,0,0,1-.35.09.54.54,0,0,1-.29-.17.19.19,0,0,1,.09-.29l.27,0s.06,0,.06,0a.2.2,0,0,0,0-.11.57.57,0,0,0-.26-.16c-.15,0-.22-.14-.26-.3s0-.44-.08-.65a9.25,9.25,0,0,0-.4-1.73c-.18-.51-.37-1-.56-1.52,0,0,0-.08,0-.11s-.14-.17,0-.28.12.12.18.18S85.1,17.9,85.21,18Z" transform="translate(-2.27 -3.78)"/><path d="M3.85,19.42c-.13-.46-.28-.91-.38-1.38-.18-.93-.4-1.86-.52-2.8l.17.34c.06.13.11.27.17.4a.62.62,0,0,0,.31.37.49.49,0,0,1,.23.43.87.87,0,0,1,0,.23,5.29,5.29,0,0,0-.06,1,.37.37,0,0,0,.09.25.72.72,0,0,1,.15.51c0,.14,0,.29,0,.43S4,19.39,3.85,19.42Z" transform="translate(-2.27 -3.78)"/><path d="M38.72,20.22a.66.66,0,0,1,.61.18s-.12.08-.12.12a.31.31,0,0,0,.16.32.61.61,0,0,0,.14.07.26.26,0,0,1,.09.42,3.7,3.7,0,0,1-.28.28l-.1-.22-.16.07c-.09-.12-.18-.25-.28-.37a.66.66,0,0,1-.1-.62,1.09,1.09,0,0,0,0-.26Z" transform="translate(-2.27 -3.78)"/><path d="M68.64,19.41c.09.11.18.19.25.28a7.59,7.59,0,0,0,.57.68.45.45,0,0,1,.15.5l.22.09c0,.17-.15.24-.26.16l-.09-.07a1.29,1.29,0,0,1-.16-.17,1,1,0,0,1,0-.16.61.61,0,0,0-.22-.55,2.17,2.17,0,0,1-.46-.63S68.63,19.48,68.64,19.41Z" transform="translate(-2.27 -3.78)"/><path d="M38.85,9.79l-.14-.19c-.09-.12,0-.22.1-.25l.3-.08a.22.22,0,0,1,.23.12.83.83,0,0,1,.08.22.1.1,0,0,1,0,.1.09.09,0,0,1-.1,0,2.12,2.12,0,0,1-.2-.12.66.66,0,0,0-.15,0Z" transform="translate(-2.27 -3.78)"/><path d="M91.94,18.45c.14.31.2.57.3.82a1.21,1.21,0,0,1,.05.65s-.06,0-.09.06A6,6,0,0,1,91.94,18.45Z" transform="translate(-2.27 -3.78)"/><path d="M67.47,22.9l0,0a.48.48,0,0,0,.51-.27s0,0,.06,0,0,0,0,0,0,.28,0,.42a.34.34,0,0,1-.16.21.22.22,0,0,1-.22,0A.58.58,0,0,1,67.47,22.9Z" transform="translate(-2.27 -3.78)"/><path d="M69.35,21.71l.73.17a2,2,0,0,1,.24.41l-.07,0A2.29,2.29,0,0,1,69.35,21.71Z" transform="translate(-2.27 -3.78)"/><path d="M47.48,25.7a1,1,0,0,1-.14-.68.79.79,0,0,1,.12-.57C47.49,24.86,47.47,25.25,47.48,25.7Z" transform="translate(-2.27 -3.78)"/><path d="M88.53,15.55c-.1-.07-.23,0-.34-.06a.21.21,0,0,1,.23-.12.24.24,0,0,1,.21.14,2.44,2.44,0,0,1,.14.28.12.12,0,0,1,0,.1.11.11,0,0,1-.1,0,.09.09,0,0,1-.09-.1C88.56,15.73,88.59,15.63,88.53,15.55Z" transform="translate(-2.27 -3.78)"/><path d="M44.34,34.71l-.06.09a.3.3,0,0,0-.15.32.12.12,0,0,1,0,.07.11.11,0,0,1-.07,0s0,0,0,0A.62.62,0,0,1,44,35C44,34.8,44.09,34.71,44.34,34.71Z" transform="translate(-2.27 -3.78)"/><path d="M96,21.14a.53.53,0,0,1-.38.24.48.48,0,0,1-.14-.05s-.06-.07,0-.14A3.86,3.86,0,0,1,96,21.14Z" transform="translate(-2.27 -3.78)"/><path d="M40.14,17.33a.8.8,0,0,1-.2-.4,1.62,1.62,0,0,1,.39.24C40.29,17.28,40.19,17.27,40.14,17.33Z" transform="translate(-2.27 -3.78)"/><path d="M84.68,15c-.12-.14-.19-.33-.42-.38a.17.17,0,0,1,.25,0A.44.44,0,0,1,84.68,15Z" transform="translate(-2.27 -3.78)"/><path d="M53,21l-.17-.27a.23.23,0,0,1,.28.08.18.18,0,0,1,0,.1A1,1,0,0,1,53,21Z" transform="translate(-2.27 -3.78)"/></svg>